<svg width="24" height="24" viewBox="0 0 24 24" fill="none" xmlns="http://www.w3.org/2000/svg">
<g clip-path="url(#clip0_168_1375)">
<path d="M12 24C18.6274 24 24 18.6274 24 12C24 5.37258 18.6274 0 12 0C5.37258 0 0 5.37258 0 12C0 18.6274 5.37258 24 12 24Z" fill="#192728"/>
<path opacity="0.2" d="M12 23.9001C18.5722 23.9001 23.9 18.5723 23.9 12.0001C23.9 5.42791 18.5722 0.100098 12 0.100098C5.42779 0.100098 0.0999756 5.42791 0.0999756 12.0001C0.0999756 18.5723 5.42779 23.9001 12 23.9001Z" stroke="#BA9130" stroke-width="0.6"/>
<mask id="mask0_168_1375" style="mask-type:luminance" maskUnits="userSpaceOnUse" x="0" y="0" width="24" height="24">
<path d="M12 24C18.6274 24 24 18.6274 24 12C24 5.37258 18.6274 0 12 0C5.37258 0 0 5.37258 0 12C0 18.6274 5.37258 24 12 24Z" fill="white"/>
</mask>
<g mask="url(#mask0_168_1375)">
<path d="M12 13.9998C15.0928 13.9998 17.6 11.4926 17.6 8.3998C17.6 5.30701 15.0928 2.7998 12 2.7998C8.90717 2.7998 6.39996 5.30701 6.39996 8.3998C6.39996 11.4926 8.90717 13.9998 12 13.9998Z" stroke="#BA9130" stroke-width="0.9"/>
<path opacity="0.82" d="M12 12.5997C14.3196 12.5997 16.2 10.7193 16.2 8.39971C16.2 6.08011 14.3196 4.19971 12 4.19971C9.68039 4.19971 7.79999 6.08011 7.79999 8.39971C7.79999 10.7193 9.68039 12.5997 12 12.5997Z" stroke="#BA9130" stroke-width="0.8"/>
<path opacity="0.62" d="M12 11.1996C13.5464 11.1996 14.8 9.94601 14.8 8.39961C14.8 6.85321 13.5464 5.59961 12 5.59961C10.4536 5.59961 9.20001 6.85321 9.20001 8.39961C9.20001 9.94601 10.4536 11.1996 12 11.1996Z" stroke="#C8A84A" stroke-width="0.7"/>
<path opacity="0.36" d="M12 9.8C12.7732 9.8 13.4 9.1732 13.4 8.4C13.4 7.6268 12.7732 7 12 7C11.2268 7 10.6 7.6268 10.6 8.4C10.6 9.1732 11.2268 9.8 12 9.8Z" stroke="#9FCFDC" stroke-width="0.6"/>
<path opacity="0.18" d="M12 8.8C12.2209 8.8 12.4 8.62091 12.4 8.4C12.4 8.17909 12.2209 8 12 8C11.7791 8 11.6 8.17909 11.6 8.4C11.6 8.62091 11.7791 8.8 12 8.8Z" stroke="#9FCFDC" stroke-width="0.4"/>
<path d="M0.799988 23.2C0.799988 17.4 5.59999 14 12 14C18.4 14 23.2 17.4 23.2 23.2" stroke="#BA9130" stroke-width="0.9" stroke-linecap="round"/>
<path opacity="0.82" d="M2.20001 23.1997C2.20001 18.1997 6.60001 15.1997 12 15.1997C17.4 15.1997 21.8 18.1997 21.8 23.1997" stroke="#BA9130" stroke-width="0.8" stroke-linecap="round"/>
<path opacity="0.62" d="M3.59998 23.1999C3.59998 18.9999 7.59998 16.3999 12 16.3999C16.4 16.3999 20.4 18.9999 20.4 23.1999" stroke="#C8A84A" stroke-width="0.7" stroke-linecap="round"/>
<path opacity="0.46" d="M5 23.1996C5 19.7996 8.6 17.5996 12 17.5996C15.4 17.5996 19 19.7996 19 23.1996" stroke="#C8A84A" stroke-width="0.6" stroke-linecap="round"/>
<path opacity="0.3" d="M6.39996 23.1998C6.39996 20.5998 9.59996 18.7998 12 18.7998C14.4 18.7998 17.6 20.5998 17.6 23.1998" stroke="#8ABBC8" stroke-width="0.6" stroke-linecap="round"/>
<path opacity="0.18" d="M7.79999 23.2C7.79999 21.4 10.6 20 12 20C13.4 20 16.2 21.4 16.2 23.2" stroke="#9FCFDC" stroke-width="0.5" stroke-linecap="round"/>
</g>
</g>
<defs>
<clipPath id="clip0_168_1375">
<rect width="24" height="24" fill="white"/>
</clipPath>
</defs>
</svg>
