<svg width="22" height="20" viewBox="0 0 22 20" fill="none" xmlns="http://www.w3.org/2000/svg">
<g clip-path="url(#clip0_158_887)">
<path d="M4 0H2C0.89543 0 0 0.89543 0 2V16C0 17.1046 0.89543 18 2 18H4C5.10457 18 6 17.1046 6 16V2C6 0.89543 5.10457 0 4 0Z" stroke="#BA9130" stroke-width="1.3"/>
<path d="M20 1H18C16.8954 1 16 1.89543 16 3V16C16 17.1046 16.8954 18 18 18H20C21.1046 18 22 17.1046 22 16V3C22 1.89543 21.1046 1 20 1Z" stroke="#BA9130" stroke-width="1.3"/>
<path opacity="0.55" d="M12 3H10C8.89543 3 8 3.89543 8 5V16C8 17.1046 8.89543 18 10 18H12C13.1046 18 14 17.1046 14 16V5C14 3.89543 13.1046 3 12 3Z" stroke="#4DAFC2"/>
<path d="M-1 19H23" stroke="#BA9130" stroke-width="1.3"/>
</g>
<defs>
<clipPath id="clip0_158_887">
<rect width="22" height="20" fill="white"/>
</clipPath>
</defs>
</svg>
