<svg width="40" height="40" viewBox="0 0 40 40" fill="none" xmlns="http://www.w3.org/2000/svg">
<g clip-path="url(#clip0_171_17)">
<path d="M2.85714 2.85714H17.1429C17.1429 0.952381 18.0952 0 20 0C21.9048 0 22.8571 0.952381 22.8571 2.85714H37.1429V17.1429C39.0476 17.1429 40 18.0952 40 20C40 21.9048 39.0476 22.8571 37.1429 22.8571V37.1429H22.8571C22.8571 39.0476 21.9048 40 20 40C18.0952 40 17.1429 39.0476 17.1429 37.1429H2.85714V22.8571C0.952381 22.8571 0 21.9048 0 20C0 18.0952 0.952381 17.1429 2.85714 17.1429V2.85714Z" fill="#3C5D66"/>
<path opacity="0.25" d="M30 7.14307H9.99996C8.42201 7.14307 7.14282 8.42225 7.14282 10.0002V30.0002C7.14282 31.5782 8.42201 32.8574 9.99996 32.8574H30C31.5779 32.8574 32.8571 31.5782 32.8571 30.0002V10.0002C32.8571 8.42225 31.5779 7.14307 30 7.14307Z" fill="#192728"/>
<path opacity="0.5" d="M20 22.8574C21.5779 22.8574 22.8571 21.5782 22.8571 20.0002C22.8571 18.4223 21.5779 17.1431 20 17.1431C18.422 17.1431 17.1428 18.4223 17.1428 20.0002C17.1428 21.5782 18.422 22.8574 20 22.8574Z" fill="#9FCFDC"/>
</g>
<defs>
<clipPath id="clip0_171_17">
<rect width="40" height="40" fill="white"/>
</clipPath>
</defs>
</svg>
