<svg width="40" height="40" viewBox="0 0 40 40" fill="none" xmlns="http://www.w3.org/2000/svg">
<path d="M20 38.4617C30.196 38.4617 38.4615 30.1961 38.4615 20.0001C38.4615 9.80409 30.196 1.53857 20 1.53857C9.80397 1.53857 1.53845 9.80409 1.53845 20.0001C1.53845 30.1961 9.80397 38.4617 20 38.4617Z" fill="#3C5D66"/>
<path opacity="0.5" d="M20 31.5383C26.3725 31.5383 31.5385 26.3724 31.5385 19.9999C31.5385 13.6274 26.3725 8.46143 20 8.46143C13.6275 8.46143 8.46155 13.6274 8.46155 19.9999C8.46155 26.3724 13.6275 31.5383 20 31.5383Z" fill="#192728"/>
<path d="M20 4.61523L23.0769 19.9999L20 16.9229L16.9231 19.9999L20 4.61523Z" fill="#DCB24C"/>
<path opacity="0.7" d="M20 35.3846L16.9231 20L20 23.0769L23.0769 20L20 35.3846Z" fill="#9FCFDC"/>
</svg>
