<svg width="40" height="40" viewBox="0 0 40 40" fill="none" xmlns="http://www.w3.org/2000/svg">
<path d="M20 2.35303C20 2.35303 2.35292 14.1177 1.17645 18.8236H38.8235C37.647 14.1177 20 2.35303 20 2.35303Z" fill="#3C5D66"/>
<path d="M32.9412 18.8237H7.05885C4.45986 18.8237 2.35297 20.9306 2.35297 23.5296V34.1178C2.35297 36.7168 4.45986 38.8237 7.05885 38.8237H32.9412C35.5402 38.8237 37.6471 36.7168 37.6471 34.1178V23.5296C37.6471 20.9306 35.5402 18.8237 32.9412 18.8237Z" fill="#3C5D66"/>
<path opacity="0.9" d="M11.4286 22.1431H7.14286C5.95939 22.1431 5 23.1824 5 24.4645V29.1074C5 30.3894 5.95939 31.4288 7.14286 31.4288H11.4286C12.612 31.4288 13.5714 30.3894 13.5714 29.1074V24.4645C13.5714 23.1824 12.612 22.1431 11.4286 22.1431Z" fill="#DCB24C"/>
<path opacity="0.9" d="M32.8572 22.1431H28.5714C27.388 22.1431 26.4286 23.1824 26.4286 24.4645V29.1074C26.4286 30.3894 27.388 31.4288 28.5714 31.4288H32.8572C34.0406 31.4288 35 30.3894 35 29.1074V24.4645C35 23.1824 34.0406 22.1431 32.8572 22.1431Z" fill="#DCB24C"/>
<path opacity="0.5" d="M15.7143 38.5716V30.8443C15.7143 27.9006 17.2619 26.4287 20.3572 26.4287C23.4524 26.4287 25 27.9006 25 30.8443V38.5716H15.7143Z" fill="#192728"/>
</svg>
