<svg xmlns="http://www.w3.org/2000/svg" width="40" height="40" viewBox="0 0 40 40">
  <rect width="40" height="40" rx="10" fill="#3C5D66"/>
  <circle cx="20" cy="20" r="11" fill="#F2EFE8"/>
  <circle cx="20" cy="20" r="11" fill="none" stroke="#3C5D66" stroke-width="1.5"/>
  <path d="M20,9 C23,12 23,16 20,20 C17,24 17,28 20,31" fill="none" stroke="#BA9130" stroke-width="1.4" stroke-linecap="round"/>
  <path d="M9,20 C12,17 16,17 20,20 C24,23 28,23 31,20" fill="none" stroke="#BA9130" stroke-width="1.4" stroke-linecap="round"/>
  <path d="M11.5,13.5 C14,14.5 15.5,17 15,20" fill="none" stroke="#9FCFDC" stroke-width="1.0" stroke-linecap="round" opacity="0.7"/>
  <path d="M28.5,13.5 C26,14.5 24.5,17 25,20" fill="none" stroke="#9FCFDC" stroke-width="1.0" stroke-linecap="round" opacity="0.7"/>
  <path d="M11.5,26.5 C14,25.5 15.5,23 15,20" fill="none" stroke="#9FCFDC" stroke-width="1.0" stroke-linecap="round" opacity="0.7"/>
  <path d="M28.5,26.5 C26,25.5 24.5,23 25,20" fill="none" stroke="#9FCFDC" stroke-width="1.0" stroke-linecap="round" opacity="0.7"/>
</svg>