<svg width="57" height="57" viewBox="0 0 57 57" fill="none" xmlns="http://www.w3.org/2000/svg">
<g clip-path="url(#clip0_200_142)">
<path d="M30.3455 10.6894C40.5444 10.7975 48.7251 19.1529 48.6171 29.3518C48.509 39.5508 40.1532 47.7315 29.9542 47.6234L27.9022 47.6014C16.57 47.4812 7.48102 38.1972 7.60115 26.8649L7.77499 10.45L30.3455 10.6894Z" stroke="#BA9130" stroke-width="0.972"/>
<path opacity="0.86" d="M30.0694 12.3993C39.406 12.5019 47.101 19.9404 46.9984 29.277C46.8958 38.6136 39.3034 46.0521 29.9668 45.9495L27.9148 45.8982C17.347 45.7956 9.08768 37.4337 9.19028 26.9685L9.34418 12.1941L30.0694 12.3993Z" stroke="#BA9130" stroke-width="0.864"/>
<path opacity="0.73" d="M29.8129 14.0921C38.2773 14.1947 45.2028 20.7098 45.1002 29.1743C44.9976 37.6388 38.4312 44.4104 29.9667 44.3078L27.9661 44.2565C18.1165 44.1539 10.6267 36.6641 10.7293 27.071L10.8832 13.9382L29.8129 14.0921Z" stroke="#BA9130" stroke-width="0.864"/>
<path opacity="0.6" d="M29.5563 15.7852C37.1487 15.8878 43.3048 21.4795 43.2022 29.0719C43.0996 36.6643 37.5591 42.7177 30.018 42.6151L28.0173 42.5638C18.8859 42.4612 12.1656 35.8435 12.2682 27.1738L12.4221 15.6313L29.5563 15.7852Z" stroke="#F2EFE8" stroke-width="0.756"/>
<path opacity="0.47" d="M29.2999 17.4781C36.0202 17.5807 41.4067 22.249 41.3041 28.9693C41.2015 35.6896 36.6871 41.0761 30.0694 40.9735L28.0687 40.9222C19.6555 40.8196 13.7047 35.0227 13.8073 27.2764L13.9612 17.3242L29.2999 17.4781Z" stroke="#F2EFE8" stroke-width="0.756"/>
<path opacity="0.34" d="M29.0434 19.171C34.8916 19.2736 39.5086 23.0185 39.406 28.8667C39.3034 34.7149 35.815 39.4345 30.1207 39.3319L28.12 39.2806C20.425 39.178 15.2437 34.2019 15.3463 27.379L15.5002 19.0171L29.0434 19.171Z" stroke="#F2EFE8" stroke-width="0.648"/>
<path opacity="0.22" d="M28.7869 20.8639C33.763 20.9665 37.6105 23.788 37.5079 28.7641C37.4053 33.7402 34.9429 37.7416 30.172 37.6903L28.1713 37.639C21.1945 37.5364 16.7827 33.3811 16.8853 27.4816L17.0392 20.71L28.7869 20.8639Z" stroke="#F2EFE8" stroke-width="0.648"/>
<path opacity="0.11" d="M28.5304 22.5567C32.6344 22.6593 35.7124 24.5574 35.6098 28.6614C35.5072 32.7654 34.0708 36.0999 30.2233 36.0486L28.2226 35.9973C21.964 35.8947 18.3217 32.5602 18.4243 27.5841L18.5782 22.4028L28.5304 22.5567Z" stroke="#F2EFE8" stroke-width="0.54"/>
</g>
<defs>
<clipPath id="clip0_200_142">
<rect width="57" height="57" fill="white"/>
</clipPath>
</defs>
</svg>
