<svg width="57" height="57" viewBox="0 0 57 57" fill="none" xmlns="http://www.w3.org/2000/svg">
<g clip-path="url(#clip0_223_125)">
<path d="M30.3455 10.6894C40.5444 10.7975 48.7251 19.1529 48.6171 29.3518C48.509 39.5508 40.1532 47.7315 29.9542 47.6234L27.9022 47.6014C16.57 47.4812 7.48102 38.1972 7.60115 26.8649L7.77499 10.45L30.3455 10.6894Z" stroke="#BA9130" stroke-width="0.972"/>
<path opacity="0.86" d="M30.0694 12.3993C39.406 12.5019 47.101 19.9404 46.9984 29.277C46.8958 38.6136 39.3034 46.0521 29.9668 45.9495L27.9148 45.8982C17.347 45.7956 9.08768 37.4337 9.19028 26.9685L9.34418 12.1941L30.0694 12.3993Z" stroke="#BA9130" stroke-width="0.864"/>
<path opacity="0.73" d="M29.8129 14.0923C38.2774 14.1949 45.2029 20.71 45.1003 29.1745C44.9977 37.639 38.4313 44.4106 29.9668 44.308L27.9661 44.2567C18.1165 44.1541 10.6267 36.6643 10.7293 27.0712L10.8832 13.9384L29.8129 14.0923Z" stroke="#BA9130" stroke-width="0.864"/>
<path opacity="0.6" d="M29.5563 15.7851C37.1487 15.8877 43.3048 21.4794 43.2022 29.0718C43.0996 36.6642 37.5591 42.7176 30.018 42.615L28.0173 42.5637C18.8859 42.4611 12.1656 35.8434 12.2682 27.1737L12.4221 15.6312L29.5563 15.7851Z" stroke="#F2EFE8" stroke-width="0.756"/>
<path opacity="0.47" d="M29.2999 17.478C36.0202 17.5806 41.4067 22.2489 41.3041 28.9692C41.2015 35.6895 36.6871 41.076 30.0694 40.9734L28.0687 40.9221C19.6555 40.8195 13.7047 35.0226 13.8073 27.2763L13.9612 17.3241L29.2999 17.478Z" stroke="#F2EFE8" stroke-width="0.756"/>
<path opacity="0.34" d="M29.0433 19.171C34.8915 19.2736 39.5085 23.0185 39.4059 28.8667C39.3033 34.7149 35.8149 39.4345 30.1206 39.3319L28.1199 39.2806C20.4249 39.178 15.2436 34.2019 15.3462 27.379L15.5001 19.0171L29.0433 19.171Z" stroke="#F2EFE8" stroke-width="0.648"/>
<path opacity="0.22" d="M28.7869 20.8639C33.763 20.9665 37.6105 23.788 37.5079 28.7641C37.4053 33.7402 34.9429 37.7416 30.172 37.6903L28.1713 37.639C21.1945 37.5364 16.7827 33.3811 16.8853 27.4816L17.0392 20.71L28.7869 20.8639Z" stroke="#F2EFE8" stroke-width="0.648"/>
<path opacity="0.11" d="M28.5303 22.5567C32.6343 22.6593 35.7123 24.5574 35.6097 28.6614C35.5071 32.7654 34.0707 36.0999 30.2232 36.0486L28.2225 35.9973C21.9639 35.8947 18.3216 32.5602 18.4242 27.5841L18.5781 22.4028L28.5303 22.5567Z" stroke="#F2EFE8" stroke-width="0.54"/>
</g>
<defs>
<clipPath id="clip0_223_125">
<rect width="57" height="57" fill="white"/>
</clipPath>
</defs>
</svg>
