<svg width="42" height="39" viewBox="0 0 42 39" fill="none" xmlns="http://www.w3.org/2000/svg">
<path d="M23.1992 0.730337C33.3836 0.838299 41.5526 9.18177 41.4448 19.3662C41.3369 29.5507 32.993 37.7197 22.8085 37.6118L20.7594 37.5898C9.44327 37.4698 0.36724 28.199 0.487199 16.8828L0.66079 0.491211L23.1992 0.730337Z" stroke="#19272B" stroke-width="0.972"/>
<path opacity="0.84" d="M22.9235 2.43782C32.2468 2.54027 39.9309 9.96819 39.8284 19.2915C39.726 28.6148 32.1444 36.0427 22.8211 35.9403L20.772 35.8891C10.2192 35.7866 1.97167 27.4366 2.07413 16.9863L2.22781 2.23291L22.9235 2.43782Z" stroke="#19272B" stroke-width="0.864"/>
<path opacity="0.68" d="M22.6674 4.12853C31.1198 4.23099 38.0355 10.7368 37.933 19.1893C37.8306 27.6417 31.2735 34.4037 22.821 34.3013L20.8232 34.25C10.9876 34.1476 3.50845 26.6684 3.6109 17.089L3.76458 3.97485L22.6674 4.12853Z" stroke="#19272B" stroke-width="0.864"/>
<path opacity="0.54" d="M22.4112 5.81872C29.9928 5.92117 36.1401 11.5049 36.0376 19.0865C35.9351 26.6681 30.4026 32.7129 22.8723 32.6105L20.8744 32.5592C11.756 32.4568 5.04525 25.8485 5.1477 17.1911L5.30138 5.66504L22.4112 5.81872Z" stroke="#3C5D66" stroke-width="0.756"/>
<path opacity="0.4" d="M22.1551 7.50939C28.8658 7.61185 34.2447 12.2735 34.1422 18.9842C34.0398 25.695 29.5318 31.0738 22.9235 30.9714L20.9256 30.9201C12.5244 30.8177 6.58208 25.029 6.68453 17.2938L6.83821 7.35571L22.1551 7.50939Z" stroke="#C8A84A" stroke-width="0.756"/>
<path opacity="0.28" d="M21.899 9.19982C27.7388 9.30228 32.3493 13.0419 32.2468 18.8817C32.1444 24.7216 28.6609 29.4345 22.9747 29.332L20.9769 29.2808C13.2928 29.1784 8.11889 24.2093 8.22134 17.3961L8.37502 9.04614L21.899 9.19982Z" stroke="#BA9130" stroke-width="0.648"/>
<path opacity="0.15" d="M21.6428 10.8903C26.6118 10.9927 30.4538 13.8102 30.3514 18.7792C30.2489 23.7482 27.79 27.7439 23.0259 27.6927L21.028 27.6415C14.0612 27.539 9.65564 23.3896 9.7581 17.4985L9.91178 10.7366L21.6428 10.8903Z" stroke="#BA9130" stroke-width="0.54"/>
</svg>
