<svg width="148" height="164" viewBox="0 0 148 164" fill="none" xmlns="http://www.w3.org/2000/svg">
<g clip-path="url(#clip0_190_89)">
<path d="M4.3667 4L72.3667 42L140.367 4" stroke="#DCB24C" stroke-width="0.9" stroke-linecap="round" stroke-linejoin="round"/>
<path opacity="0.86" d="M4.3667 18L72.3667 56L140.367 18" stroke="#DCB24C" stroke-width="0.85" stroke-linecap="round" stroke-linejoin="round"/>
<path opacity="0.72" d="M4.3667 32L72.3667 70L140.367 32" stroke="#DCB24C" stroke-width="0.8" stroke-linecap="round" stroke-linejoin="round"/>
<path opacity="0.58" d="M4.3667 46L72.3667 84L140.367 46" stroke="#DCB24C" stroke-width="0.75" stroke-linecap="round" stroke-linejoin="round"/>
<path opacity="0.46" d="M4.3667 60L72.3667 98L140.367 60" stroke="#DCB24C" stroke-width="0.68" stroke-linecap="round" stroke-linejoin="round"/>
<path opacity="0.34" d="M4.3667 74L72.3667 112L140.367 74" stroke="#4DAFC2" stroke-width="0.6" stroke-linecap="round" stroke-linejoin="round"/>
<path opacity="0.24" d="M4.3667 88L72.3667 126L140.367 88" stroke="#4DAFC2" stroke-width="0.52" stroke-linecap="round" stroke-linejoin="round"/>
<path opacity="0.15" d="M4.3667 102L72.3667 140L140.367 102" stroke="#4DAFC2" stroke-width="0.42" stroke-linecap="round" stroke-linejoin="round"/>
<path opacity="0.08" d="M4.3667 116L72.3667 154L140.367 116" stroke="#4DAFC2" stroke-width="0.3" stroke-linecap="round" stroke-linejoin="round"/>
</g>
<g filter="url(#filter0_f_190_89)">
<g clip-path="url(#clip1_190_89)">
<path d="M4.45007 4L73.8667 42L143.283 4" stroke="#DCB24C" stroke-width="0.9" stroke-linecap="round" stroke-linejoin="round"/>
<path opacity="0.86" d="M4.45007 18L73.8667 56L143.283 18" stroke="#DCB24C" stroke-width="0.85" stroke-linecap="round" stroke-linejoin="round"/>
<path opacity="0.72" d="M4.45007 32L73.8667 70L143.283 32" stroke="#DCB24C" stroke-width="0.8" stroke-linecap="round" stroke-linejoin="round"/>
<path opacity="0.58" d="M4.45007 46L73.8667 84L143.283 46" stroke="#DCB24C" stroke-width="0.75" stroke-linecap="round" stroke-linejoin="round"/>
<path opacity="0.46" d="M4.45007 60L73.8667 98L143.283 60" stroke="#DCB24C" stroke-width="0.68" stroke-linecap="round" stroke-linejoin="round"/>
<path opacity="0.34" d="M4.45007 74L73.8667 112L143.283 74" stroke="#4DAFC2" stroke-width="0.6" stroke-linecap="round" stroke-linejoin="round"/>
<path opacity="0.24" d="M4.45007 88L73.8667 126L143.283 88" stroke="#4DAFC2" stroke-width="0.52" stroke-linecap="round" stroke-linejoin="round"/>
<path opacity="0.15" d="M4.45007 102L73.8667 140L143.283 102" stroke="#4DAFC2" stroke-width="0.42" stroke-linecap="round" stroke-linejoin="round"/>
<path opacity="0.08" d="M4.45007 116L73.8667 154L143.283 116" stroke="#4DAFC2" stroke-width="0.3" stroke-linecap="round" stroke-linejoin="round"/>
</g>
</g>
<defs>
<filter id="filter0_f_190_89" x="-3.6333" y="0" width="155" height="168" filterUnits="userSpaceOnUse" color-interpolation-filters="sRGB">
<feFlood flood-opacity="0" result="BackgroundImageFix"/>
<feBlend mode="normal" in="SourceGraphic" in2="BackgroundImageFix" result="shape"/>
<feGaussianBlur stdDeviation="2" result="effect1_foregroundBlur_190_89"/>
</filter>
<clipPath id="clip0_190_89">
<rect width="144" height="160" fill="white" transform="translate(0.366699 4)"/>
</clipPath>
<clipPath id="clip1_190_89">
<rect width="147" height="160" fill="white" transform="translate(0.366699 4)"/>
</clipPath>
</defs>
</svg>
