<svg width="309" height="94" viewBox="0 0 309 94" fill="none" xmlns="http://www.w3.org/2000/svg">
<g clip-path="url(#clip0_156_621)">
<path d="M50.6763 84.1053H9.39471V63.0789C9.39471 51.7397 18.6359 42.5474 30.0355 42.5474C41.4351 42.5474 50.6763 51.7397 50.6763 63.0789V84.1053Z" stroke="#19272B" stroke-width="0.852632"/>
<path opacity="0.88" d="M49.1842 84.1053H10.8868V63.079C10.8868 52.5411 19.4416 44.0316 30.0355 44.0316C40.6295 44.0316 49.1842 52.5411 49.1842 63.079V84.1053Z" stroke="#19272B" stroke-width="0.757895"/>
<path opacity="0.74" d="M47.6921 84.1052H12.379V63.0789C12.379 53.3326 20.2374 45.5157 30.0355 45.5157C39.8337 45.5157 47.6921 53.3326 47.6921 63.0789V84.1052Z" stroke="#19272B" stroke-width="0.757895"/>
<path opacity="0.6" d="M46.2 84.1053H13.871V63.0789C13.871 54.1242 21.0331 47 30.0355 47C39.0379 47 46.2 54.1242 46.2 63.0789V84.1053Z" stroke="#3C5D66" stroke-width="0.663158"/>
<path opacity="0.47" d="M44.7079 84.1053H15.3632V63.079C15.3632 54.9158 21.8289 48.4843 30.0355 48.4843C38.2421 48.4843 44.7079 54.9158 44.7079 63.079V84.1053Z" stroke="#3C5D66" stroke-width="0.663158"/>
<path opacity="0.35" d="M43.2158 84.1052H16.8553V63.0789C16.8553 55.7073 22.6248 49.9684 30.0355 49.9684C37.4463 49.9684 43.2158 55.7073 43.2158 63.0789V84.1052Z" stroke="#C8A84A" stroke-width="0.568421"/>
<path opacity="0.22" d="M41.7237 84.1053H18.3474V63.079C18.3474 56.499 23.4205 51.4526 30.0355 51.4526C36.6505 51.4526 41.7237 56.499 41.7237 63.079V84.1053Z" stroke="#BA9130" stroke-width="0.568421"/>
<path opacity="0.11" d="M40.2316 84.1053H19.8395V63.079C19.8395 57.2906 24.2163 52.9369 30.0355 52.9369C35.8547 52.9369 40.2316 57.2906 40.2316 63.079V84.1053Z" stroke="#BA9130" stroke-width="0.473684"/>
<path opacity="0.05" d="M38.7394 84.1052H21.3315V63.0789C21.3315 58.0821 25.0121 54.421 30.0355 54.421C35.0589 54.421 38.7394 58.0821 38.7394 63.0789V84.1052Z" stroke="#BA9130" stroke-width="0.473684"/>
<path d="M9.8513 20.7971C9.73473 31.7357 18.5549 40.6972 29.5517 40.8132L31.5428 40.8341C41.4399 40.9385 49.5481 33.0424 49.6531 23.1977C49.7579 13.3529 41.8198 5.28758 31.9227 5.18322L10.0202 4.95227L9.8513 20.7971Z" stroke="#19272B" stroke-width="0.852632"/>
<path opacity="0.88" d="M11.3842 20.779C11.2847 30.8221 19.3421 39.0348 29.5879 39.1337H31.5774C40.5797 39.2327 47.9408 32.059 48.0403 23.1042C48.1397 14.1495 40.9776 6.82739 31.8758 6.72845L11.5334 6.48108L11.3842 20.779Z" stroke="#19272B" stroke-width="0.757895"/>
<path opacity="0.74" d="M12.8763 20.7295C12.7768 29.8821 20.1379 37.4021 29.6376 37.5011H31.5774C39.7342 37.6 46.3492 31.0695 46.4487 23.0053C46.5481 14.9411 40.1321 8.36109 31.826 8.26214L13.0752 8.01477L12.8763 20.7295Z" stroke="#19272B" stroke-width="0.757895"/>
<path opacity="0.6" d="M14.3684 20.68C14.2689 28.9916 20.9337 35.7695 29.6376 35.8685H31.5774C38.8887 35.9674 44.7576 30.08 44.8571 22.9064C44.9566 15.7327 39.2866 9.89478 31.7763 9.79583L14.6171 9.54846L14.3684 20.68Z" stroke="#3C5D66" stroke-width="0.663158"/>
<path opacity="0.47" d="M15.8605 20.6306C15.7611 28.1011 21.7295 34.1369 29.6874 34.2358H31.5774C38.0432 34.3348 43.1661 29.0906 43.2655 22.8074C43.365 16.5243 38.4411 11.4285 31.7266 11.3295L16.159 11.0822L15.8605 20.6306Z" stroke="#3C5D66" stroke-width="0.663158"/>
<path opacity="0.35" d="M17.3526 20.5811C17.2532 27.2106 22.5253 32.5043 29.7371 32.6032H31.5774C37.1976 32.7022 41.5745 28.1011 41.674 22.7085C41.7734 17.3158 37.5955 12.9622 31.6769 12.8632L17.7008 12.6158L17.3526 20.5811Z" stroke="#C8A84A" stroke-width="0.568421"/>
<path opacity="0.22" d="M18.8447 20.5315C18.7453 26.3199 23.321 30.8715 29.7868 30.9705H31.5774C36.3521 31.0694 39.9829 27.1115 40.0824 22.6094C40.1818 18.1073 36.75 14.4957 31.6271 14.3968L19.2426 14.1494L18.8447 20.5315Z" stroke="#BA9130" stroke-width="0.568421"/>
<path opacity="0.11" d="M20.3368 20.4821C20.2374 25.4294 24.1168 29.2389 29.8366 29.3378H31.5774C35.5066 29.4368 38.3913 26.1221 38.4908 22.5105C38.5903 18.8989 35.9045 16.0294 31.5774 15.9305L20.7845 15.6831L20.3368 20.4821Z" stroke="#BA9130" stroke-width="0.473684"/>
<path d="M57.8882 22.7579C57.8882 12.9215 65.9048 4.94739 75.7934 4.94739C85.6821 4.94739 93.6987 12.9214 93.6987 22.7579V84.1053H61.8671C59.6698 84.1053 57.8882 82.3331 57.8882 80.1474V22.7579Z" stroke="#19272B" stroke-width="0.852632"/>
<path opacity="0.88" d="M59.3802 22.7578C59.3802 13.7536 66.6916 6.43152 75.7934 6.43152C84.8952 6.43152 92.2066 13.7536 92.2066 22.7578V82.621H63.1105C61.2205 82.621 59.3802 81.1368 59.3802 80.1473V22.7578Z" stroke="#19272B" stroke-width="0.757895"/>
<path opacity="0.74" d="M60.8724 22.7579C60.8724 14.5947 67.4874 7.91577 75.7934 7.91577C84.0995 7.91577 90.7145 14.5947 90.7145 22.7579V81.1368H64.354C62.7624 81.1368 60.8724 79.9494 60.8724 78.6631V22.7579Z" stroke="#19272B" stroke-width="0.757895"/>
<path opacity="0.6" d="M62.3644 22.7579C62.3644 15.4358 68.2831 9.40002 75.7934 9.40002C83.3037 9.40002 89.2223 15.4358 89.2223 22.7579V79.6527H65.5973C64.3042 79.6527 62.3644 78.7621 62.3644 77.179V22.7579Z" stroke="#3C5D66" stroke-width="0.663158"/>
<path opacity="0.47" d="M63.8566 22.7578C63.8566 16.2768 69.0789 10.8842 75.7934 10.8842C82.5079 10.8842 87.7303 16.2768 87.7303 22.7578V78.1684H66.8408C65.846 78.1684 63.8566 77.4263 63.8566 75.6947V22.7578Z" stroke="#3C5D66" stroke-width="0.663158"/>
<path opacity="0.35" d="M65.3487 22.7579C65.3487 17.1179 69.8747 12.3684 75.7934 12.3684C81.7121 12.3684 86.2382 17.1179 86.2382 22.7579V76.1895H68.0842C67.3879 76.1895 65.3487 75.7937 65.3487 74.2105V22.7579Z" stroke="#C8A84A" stroke-width="0.568421"/>
<path opacity="0.22" d="M66.8408 22.7579C66.8408 17.959 70.6705 13.8527 75.7934 13.8527C80.9163 13.8527 84.746 17.959 84.746 22.7579V74.7053H69.3276C68.9297 74.7053 66.8408 74.6064 66.8408 72.7264V22.7579Z" stroke="#BA9130" stroke-width="0.568421"/>
<path opacity="0.11" d="M68.3329 22.7578C68.3329 18.7999 71.4663 15.3368 75.7934 15.3368C80.1205 15.3368 83.2539 18.7999 83.2539 22.7578V73.221H70.571C70.4716 73.221 68.3329 73.4189 68.3329 71.2421V22.7578Z" stroke="#BA9130" stroke-width="0.473684"/>
<path opacity="0.05" d="M69.825 22.7579C69.825 19.641 72.2621 16.821 75.7934 16.821C79.3247 16.821 81.7619 19.641 81.7619 22.7579V71.7368H71.8145C72.0632 71.7368 69.825 72.1326 69.825 69.7579V22.7579Z" stroke="#BA9130" stroke-width="0.473684"/>
<path d="M101.657 14.8421C101.657 9.37742 106.11 4.94739 111.604 4.94739C117.098 4.94739 121.551 9.37742 121.551 14.8421V64.3158C121.551 75.245 112.644 84.1053 101.657 84.1053V14.8421Z" stroke="#19272B" stroke-width="0.852632"/>
<path opacity="0.88" d="M102.999 14.842C102.999 10.0926 106.879 6.43152 111.604 6.43152C116.329 6.43152 120.208 10.0926 120.208 14.842V64.3157C120.208 74.2105 112.151 82.621 102.999 82.621V14.842Z" stroke="#19272B" stroke-width="0.757895"/>
<path opacity="0.74" d="M104.342 14.8421C104.342 10.8347 107.675 7.91577 111.604 7.91577C115.533 7.91577 118.866 10.8347 118.866 14.8421V64.3158C118.866 73.221 111.654 81.1368 104.342 81.1368V14.8421Z" stroke="#19272B" stroke-width="0.757895"/>
<path opacity="0.6" d="M105.685 14.8421C105.685 11.5769 108.471 9.40002 111.604 9.40002C114.737 9.40002 117.523 11.5769 117.523 14.8421V64.3158C117.523 72.2316 111.156 79.6527 105.685 79.6527V14.8421Z" stroke="#3C5D66" stroke-width="0.663158"/>
<path opacity="0.47" d="M107.028 14.842C107.028 12.3189 109.266 10.8842 111.604 10.8842C113.942 10.8842 116.18 12.3189 116.18 14.842V64.3157C116.18 71.242 110.659 78.1684 107.028 78.1684V14.842Z" stroke="#3C5D66" stroke-width="0.663158"/>
<path opacity="0.35" d="M108.371 14.8421C108.371 13.061 110.062 12.3684 111.604 12.3684C113.146 12.3684 114.837 13.061 114.837 14.8421V64.3158C114.837 70.2526 109.664 76.6842 108.371 76.6842V14.8421Z" stroke="#C8A84A" stroke-width="0.568421"/>
<path opacity="0.22" d="M109.714 14.8421C109.714 13.8032 110.858 13.8527 111.604 13.8527C112.35 13.8527 113.494 13.8032 113.494 14.8421V64.3158C113.494 69.2632 109.664 75.2 109.714 75.2V14.8421Z" stroke="#BA9130" stroke-width="0.568421"/>
<path opacity="0.11" d="M110.609 14.8421C110.609 14.4463 111.604 15.3369 111.604 15.3369C111.604 15.3369 112.599 14.4463 112.599 14.8421V64.3158C112.599 68.2737 110.858 73.7158 110.609 73.7158V14.8421Z" stroke="#BA9130" stroke-width="0.473684"/>
<path d="M122.58 58.5432C122.601 72.6793 134.138 84.1226 148.349 84.1023L148.315 60.2263C148.295 46.09 136.757 34.667 122.546 34.667L122.58 58.5432Z" stroke="#19272B" stroke-width="0.852632"/>
<path opacity="0.88" d="M124.038 58.5273C124.038 71.6873 134.732 82.621 148.21 82.621L148.161 60.2094C148.161 47.0494 137.368 36.1157 124.038 36.1652V58.5273Z" stroke="#19272B" stroke-width="0.757895"/>
<path opacity="0.74" d="M125.481 58.5274C125.481 70.6979 135.328 81.1369 148.061 81.1369L148.011 60.2095C148.011 48.039 137.964 37.5506 125.481 37.6V58.5274Z" stroke="#19272B" stroke-width="0.757895"/>
<path opacity="0.6" d="M126.923 58.5274C126.923 69.7084 135.925 79.6526 147.912 79.6526L147.862 60.2095C147.862 49.0284 138.561 38.9853 126.923 39.0347V58.5274Z" stroke="#3C5D66" stroke-width="0.663158"/>
<path opacity="0.47" d="M128.365 58.5273C128.365 68.7189 136.522 78.1684 147.763 78.1684L147.713 60.2094C147.713 50.0178 139.158 40.42 128.365 40.4694V58.5273Z" stroke="#3C5D66" stroke-width="0.663158"/>
<path opacity="0.35" d="M129.808 58.5274C129.808 67.7295 137.119 76.6843 147.613 76.6843L147.564 60.2095C147.564 51.0074 139.755 41.8548 129.808 41.9043V58.5274Z" stroke="#C8A84A" stroke-width="0.568421"/>
<path opacity="0.22" d="M131.25 58.5274C131.25 66.74 137.716 75.2 147.464 75.2L147.414 60.2095C147.414 51.9968 140.352 43.2895 131.25 43.339V58.5274Z" stroke="#BA9130" stroke-width="0.568421"/>
<path opacity="0.11" d="M132.692 58.5273C132.692 65.7505 138.313 73.7158 147.315 73.7158L147.265 60.2094C147.265 52.9863 140.949 44.7242 132.692 44.7737V58.5273Z" stroke="#BA9130" stroke-width="0.473684"/>
<path d="M122.581 18.1209C122.562 10.884 128.444 5.00163 135.719 4.98223C142.995 4.96282 148.908 10.8137 148.928 18.0506L148.932 19.5065C148.953 27.5475 142.418 34.0835 134.334 34.105L122.625 34.1363L122.581 18.1209Z" stroke="#19272B" stroke-width="0.852632"/>
<path opacity="0.88" d="M124.038 18.1073C124.038 11.6757 129.261 6.48099 135.677 6.43152C142.093 6.43152 147.365 11.6263 147.414 18.0578V19.4926C147.414 26.7157 141.595 32.5536 134.334 32.6031H124.088L124.038 18.1073Z" stroke="#19272B" stroke-width="0.757895"/>
<path opacity="0.74" d="M125.481 18.1073C125.481 12.5168 130.056 8.01468 135.677 7.96521C141.297 7.96521 145.873 12.4673 145.922 18.0578V19.4926C145.922 25.8747 140.799 31.0694 134.383 31.1189H125.53L125.481 18.1073Z" stroke="#19272B" stroke-width="0.757895"/>
<path opacity="0.6" d="M126.923 18.1073C126.923 13.3578 130.852 9.54838 135.677 9.4989C140.501 9.4989 144.43 13.3084 144.48 18.0578L144.43 19.4926C144.43 25.0336 140.004 29.5852 134.433 29.6347H126.973L126.923 18.1073Z" stroke="#3C5D66" stroke-width="0.663158"/>
<path opacity="0.47" d="M128.365 18.1073C128.365 14.1989 131.648 11.0821 135.677 11.0326C139.705 11.0326 142.988 14.1494 143.038 18.0579L142.988 19.4926C142.988 24.1926 139.208 28.101 134.483 28.1505H128.415L128.365 18.1073Z" stroke="#3C5D66" stroke-width="0.663158"/>
<path opacity="0.35" d="M129.808 18.1073C129.808 15.04 132.444 12.6158 135.677 12.5663C138.909 12.5663 141.595 14.9905 141.595 18.0579L141.546 19.4926C141.546 23.3515 138.412 26.6168 134.533 26.6663H129.857L129.808 18.1073Z" stroke="#C8A84A" stroke-width="0.568421"/>
<path opacity="0.22" d="M131.25 18.1073C131.25 15.881 133.239 14.1494 135.677 14.1C138.114 14.1 140.153 15.8316 140.153 18.0579L140.103 19.4926C140.103 22.5105 137.616 25.1326 134.582 25.1821H131.3L131.25 18.1073Z" stroke="#BA9130" stroke-width="0.568421"/>
<path opacity="0.11" d="M132.692 18.1074C132.692 16.7221 134.035 15.6831 135.677 15.6337C137.318 15.6337 138.711 16.6726 138.711 18.0579L138.661 19.4926C138.661 21.6695 136.821 23.6484 134.632 23.6979H132.742L132.692 18.1074Z" stroke="#BA9130" stroke-width="0.473684"/>
<path d="M156.864 22.7579C156.864 12.9215 164.881 4.94739 174.77 4.94739C184.658 4.94739 192.675 12.9214 192.675 22.7579V80.1474C192.675 82.3331 190.893 84.1053 188.696 84.1053H156.864V22.7579Z" stroke="#19272B" stroke-width="0.852632"/>
<path opacity="0.88" d="M158.357 22.7578C158.357 13.7536 165.668 6.43152 174.77 6.43152C183.872 6.43152 191.183 13.7536 191.183 22.7578V80.1473C191.183 81.5821 189.641 82.621 188.696 82.621H158.357V22.7578Z" stroke="#19272B" stroke-width="0.757895"/>
<path opacity="0.74" d="M159.849 22.7579C159.849 14.5947 166.464 7.91577 174.77 7.91577C183.076 7.91577 189.691 14.5947 189.691 22.7579V79.1579C189.691 80.741 188.447 81.1368 187.701 81.1368H159.849V22.7579Z" stroke="#19272B" stroke-width="0.757895"/>
<path opacity="0.6" d="M161.341 22.7579C161.341 15.4358 167.26 9.40002 174.77 9.40002C182.28 9.40002 188.199 15.4358 188.199 22.7579V78.1685C188.199 79.9 187.254 80.1474 186.707 80.1474H161.341V22.7579Z" stroke="#3C5D66" stroke-width="0.663158"/>
<path opacity="0.47" d="M162.833 22.7578C162.833 16.2768 168.055 10.8842 174.77 10.8842C181.484 10.8842 186.707 16.2768 186.707 22.7578V77.1789C186.707 79.0589 186.06 79.1579 185.712 79.1579H162.833V22.7578Z" stroke="#3C5D66" stroke-width="0.663158"/>
<path opacity="0.35" d="M164.325 22.7579C164.325 17.1179 168.851 12.3684 174.77 12.3684C180.688 12.3684 185.214 17.1179 185.214 22.7579V76.1895C185.214 78.2179 184.866 78.1684 184.717 78.1684H164.325V22.7579Z" stroke="#C8A84A" stroke-width="0.568421"/>
<path opacity="0.22" d="M165.817 22.7579C165.817 17.959 169.647 13.8527 174.77 13.8527C179.893 13.8527 183.722 17.959 183.722 22.7579V75.2C183.722 77.3769 183.673 77.179 183.722 77.179H165.817V22.7579Z" stroke="#BA9130" stroke-width="0.568421"/>
<path opacity="0.11" d="M167.309 22.7578C167.309 18.7999 170.443 15.3368 174.77 15.3368C179.097 15.3368 182.23 18.7999 182.23 22.7578V74.2105C182.23 76.5357 182.479 76.1894 182.728 76.1894H167.309V22.7578Z" stroke="#BA9130" stroke-width="0.473684"/>
<path opacity="0.05" d="M168.801 22.7579C168.801 19.641 171.238 16.821 174.77 16.821C178.301 16.821 180.738 19.641 180.738 22.7579V73.221C180.738 75.6947 181.484 75.2 181.733 75.2H168.801V22.7579Z" stroke="#BA9130" stroke-width="0.473684"/>
<path opacity="0.22" d="M208.342 6.92627V83.1158" stroke="#19272B" stroke-width="0.663158"/>
<path d="M217.736 51.5869V34.0669H221.144V51.5869H217.736ZM223.548 51.5869L229.524 34.0669H235.092L241.236 51.5869H237.732L232.524 36.3949L233.748 36.9229H230.748L231.996 36.3949L226.956 51.5869H223.548ZM227.724 46.9309L228.804 44.0509H235.908L236.964 46.9309H227.724ZM243.599 51.5869V33.9469H247.007V51.5869H243.599ZM254.303 51.5869L248.927 43.9549H252.743L258.287 51.5869H254.303ZM245.999 45.7309V42.9709H250.463C251.087 42.9709 251.623 42.8429 252.071 42.5869C252.535 42.3309 252.895 41.9709 253.151 41.5069C253.407 41.0429 253.535 40.5149 253.535 39.9229C253.535 39.3149 253.407 38.7789 253.151 38.3149C252.895 37.8509 252.535 37.4909 252.071 37.2349C251.623 36.9789 251.087 36.8509 250.463 36.8509H245.999V33.9469H250.103C251.511 33.9469 252.727 34.1549 253.751 34.5709C254.791 34.9869 255.591 35.6189 256.151 36.4669C256.711 37.3149 256.991 38.3789 256.991 39.6589V40.0429C256.991 41.3389 256.703 42.4029 256.127 43.2349C255.567 44.0669 254.775 44.6909 253.751 45.1069C252.727 45.5229 251.511 45.7309 250.103 45.7309H245.999ZM258.904 51.5869L264.88 34.0669H270.448L276.592 51.5869H273.088L267.88 36.3949L269.104 36.9229H266.104L267.352 36.3949L262.312 51.5869H258.904ZM263.08 46.9309L264.16 44.0509H271.264L272.32 46.9309H263.08Z" fill="#3C5D66"/>
<path d="M222.882 61.7698C222.8 61.5206 222.693 61.2974 222.56 61.1C222.429 60.9002 222.272 60.7299 222.09 60.5893C221.91 60.4487 221.705 60.3414 221.475 60.2674C221.246 60.1933 220.994 60.1563 220.72 60.1563C220.271 60.1563 219.863 60.2723 219.496 60.5042C219.128 60.7361 218.836 61.0778 218.618 61.5293C218.401 61.9808 218.293 62.5346 218.293 63.1909C218.293 63.8471 218.403 64.401 218.622 64.8525C218.842 65.3039 219.139 65.6456 219.514 65.8776C219.889 66.1095 220.311 66.2254 220.78 66.2254C221.214 66.2254 221.596 66.1329 221.927 65.9479C222.26 65.7604 222.519 65.4964 222.704 65.1559C222.892 64.813 222.985 64.4096 222.985 63.9458L223.267 64.005H220.987V63.1909H223.873V64.005C223.873 64.6292 223.74 65.172 223.474 65.6333C223.21 66.0947 222.845 66.4524 222.378 66.7065C221.915 66.9581 221.382 67.084 220.78 67.084C220.109 67.084 219.519 66.9261 219.011 66.6103C218.505 66.2945 218.11 65.8455 217.827 65.2632C217.545 64.681 217.405 63.9902 217.405 63.1909C217.405 62.5914 217.485 62.0523 217.645 61.5737C217.808 61.0926 218.037 60.6831 218.334 60.3451C218.63 60.0071 218.98 59.748 219.385 59.5679C219.789 59.3878 220.234 59.2978 220.72 59.2978C221.12 59.2978 221.493 59.3582 221.838 59.4791C222.186 59.5975 222.496 59.7665 222.767 59.9861C223.041 60.2032 223.269 60.4635 223.452 60.7669C223.634 61.0679 223.76 61.4022 223.829 61.7698H222.882ZM225.522 66.9803H224.56L227.343 59.4014H228.29L231.073 66.9803H230.111L227.846 60.6004H227.787L225.522 66.9803ZM225.877 64.0198H229.756V64.834H225.877V64.0198ZM232.254 59.4014H233.349L235.925 65.6925H236.013L238.589 59.4014H239.684V66.9803H238.826V61.2221H238.752L236.383 66.9803H235.555L233.186 61.2221H233.112V66.9803H232.254V59.4014ZM241.525 66.9803V59.4014H246.099V60.2155H242.442V62.7764H245.862V63.5905H242.442V66.1662H246.158V66.9803H241.525ZM251.898 61.2961C251.853 60.9211 251.673 60.63 251.357 60.4228C251.041 60.2155 250.654 60.1119 250.195 60.1119C249.86 60.1119 249.566 60.1662 249.315 60.2748C249.065 60.3833 248.87 60.5326 248.73 60.7225C248.592 60.9125 248.523 61.1284 248.523 61.3701C248.523 61.5725 248.571 61.7464 248.667 61.8919C248.766 62.035 248.891 62.1547 249.044 62.2509C249.197 62.3447 249.358 62.4224 249.525 62.484C249.693 62.5433 249.847 62.5914 249.988 62.6284L250.758 62.8356C250.955 62.8874 251.175 62.959 251.416 63.0502C251.661 63.1415 251.894 63.2661 252.116 63.424C252.34 63.5794 252.525 63.7793 252.671 64.0235C252.817 64.2678 252.889 64.5675 252.889 64.9228C252.889 65.3323 252.782 65.7024 252.567 66.033C252.355 66.3636 252.044 66.6263 251.635 66.8212C251.228 67.0161 250.733 67.1136 250.151 67.1136C249.608 67.1136 249.138 67.026 248.741 66.8508C248.346 66.6757 248.035 66.4314 247.808 66.1181C247.584 65.8048 247.457 65.4409 247.427 65.0264H248.375C248.399 65.3126 248.495 65.5494 248.663 65.7369C248.833 65.922 249.048 66.0601 249.307 66.1514C249.569 66.2402 249.85 66.2846 250.151 66.2846C250.501 66.2846 250.816 66.2279 251.095 66.1144C251.373 65.9984 251.594 65.8381 251.757 65.6333C251.92 65.4261 252.001 65.1843 252.001 64.908C252.001 64.6563 251.931 64.4516 251.79 64.2937C251.65 64.1358 251.465 64.0075 251.235 63.9088C251.006 63.8101 250.758 63.7238 250.491 63.6498L249.559 63.3833C248.967 63.2131 248.498 62.9701 248.153 62.6543C247.807 62.3385 247.634 61.9252 247.634 61.4146C247.634 60.9902 247.749 60.6201 247.979 60.3044C248.21 59.9861 248.521 59.7394 248.911 59.5642C249.303 59.3866 249.741 59.2978 250.225 59.2978C250.713 59.2978 251.148 59.3854 251.528 59.5605C251.907 59.7332 252.208 59.9701 252.43 60.2711C252.655 60.572 252.773 60.9137 252.786 61.2961H251.898Z" fill="#BA9130"/>
</g>
<defs>
<clipPath id="clip0_156_621">
<rect width="309" height="94" fill="white"/>
</clipPath>
</defs>
</svg>
