<svg width="301" height="95" viewBox="0 0 301 95" fill="none" xmlns="http://www.w3.org/2000/svg">
<g clip-path="url(#clip0_200_153)">
<path d="M50.6764 85H9.39478V63.75C9.39478 52.2901 18.636 43 30.0356 43C41.4352 43 50.6764 52.2901 50.6764 63.75V85Z" stroke="#BA9130" stroke-width="0.852632"/>
<path opacity="0.88" d="M49.1842 85H10.8868V63.75C10.8868 53.1 19.4416 44.5 30.0355 44.5C40.6295 44.5 49.1842 53.1 49.1842 63.75V85Z" stroke="#BA9130" stroke-width="0.757895"/>
<path opacity="0.75" d="M47.6921 85H12.3789V63.75C12.3789 53.9 20.2373 46 30.0355 46C39.8336 46 47.6921 53.9 47.6921 63.75V85Z" stroke="#BA9130" stroke-opacity="0.8" stroke-width="0.757895"/>
<path opacity="0.62" d="M46.2 85H13.8711V63.75C13.8711 54.7 21.0332 47.5 30.0356 47.5C39.0379 47.5 46.2 54.7 46.2 63.75V85Z" stroke="#F2EFE8" stroke-width="0.663158"/>
<path opacity="0.5" d="M44.7079 85H15.3632V63.75C15.3632 55.5 21.8289 49 30.0355 49C38.2421 49 44.7079 55.5 44.7079 63.75V85Z" stroke="#F2EFE8" stroke-width="0.663158"/>
<path opacity="0.37" d="M43.2158 85H16.8552V63.75C16.8552 56.3 22.6247 50.5 30.0355 50.5C37.4463 50.5 43.2158 56.3 43.2158 63.75V85Z" stroke="#F2EFE8" stroke-width="0.568421"/>
<path opacity="0.25" d="M41.7237 85H18.3474V63.75C18.3474 57.1 23.4206 52 30.0356 52C36.6506 52 41.7237 57.1 41.7237 63.75V85Z" stroke="#F2EFE8" stroke-width="0.568421"/>
<path opacity="0.13" d="M40.2316 85H19.8395V63.75C19.8395 57.9 24.2163 53.5 30.0355 53.5C35.8547 53.5 40.2316 57.9 40.2316 63.75V85Z" stroke="#F2EFE8" stroke-width="0.473684"/>
<path opacity="0.06" d="M38.7394 85H21.3315V63.75C21.3315 58.7 25.0121 55 30.0355 55C35.0589 55 38.7394 58.7 38.7394 63.75V85Z" stroke="#F2EFE8" stroke-width="0.473684"/>
<path d="M9.85136 21.0184C9.73479 32.0734 18.555 41.1302 29.5517 41.2474L31.5428 41.2686C41.44 41.3741 49.5482 33.3939 49.6531 23.4445C49.758 13.495 41.8199 5.34389 31.9228 5.23842L10.0202 5.005L9.85136 21.0184Z" stroke="#BA9130" stroke-width="0.852632"/>
<path opacity="0.88" d="M11.3842 21C11.2847 31.15 19.3421 39.45 29.5879 39.55H31.5774C40.5797 39.65 47.9408 32.4001 48.0403 23.35C48.1397 14.3 40.9776 6.90005 31.8758 6.80005L11.5334 6.55005L11.3842 21Z" stroke="#BA9130" stroke-width="0.757895"/>
<path opacity="0.75" d="M12.8764 20.95C12.7769 30.2 20.1379 37.8 29.6377 37.9H31.5774C39.7343 38 46.3493 31.4 46.4487 23.25C46.5482 15.1 40.1321 8.44998 31.8261 8.34998L13.0753 8.09998L12.8764 20.95Z" stroke="#BA9130" stroke-opacity="0.8" stroke-width="0.757895"/>
<path opacity="0.62" d="M14.3684 20.9C14.2689 29.3 20.9337 36.15 29.6376 36.25H31.5774C38.8887 36.35 44.7576 30.4 44.8571 23.15C44.9566 15.9 39.2866 10 31.7763 9.90002L14.6171 9.65002L14.3684 20.9Z" stroke="#F2EFE8" stroke-width="0.663158"/>
<path opacity="0.5" d="M15.8605 20.85C15.761 28.4 21.7294 34.5 29.6873 34.6H31.5773C38.0431 34.7 43.166 29.4 43.2655 23.05C43.365 16.7 38.441 11.55 31.7265 11.45L16.1589 11.2L15.8605 20.85Z" stroke="#F2EFE8" stroke-width="0.663158"/>
<path opacity="0.37" d="M17.3526 20.8C17.2531 27.5 22.5252 32.85 29.7371 32.95H31.5773C37.1976 33.05 41.5744 28.4 41.6739 22.95C41.7734 17.5 37.5955 13.1 31.6768 13L17.7007 12.75L17.3526 20.8Z" stroke="#F2EFE8" stroke-width="0.568421"/>
<path opacity="0.25" d="M18.8447 20.75C18.7453 26.6 23.321 31.2 29.7868 31.3H31.5774C36.3521 31.4 39.9829 27.4 40.0824 22.85C40.1818 18.3 36.75 14.65 31.6271 14.55L19.2426 14.3L18.8447 20.75Z" stroke="#F2EFE8" stroke-width="0.568421"/>
<path opacity="0.13" d="M20.3368 20.7C20.2374 25.7 24.1168 29.55 29.8366 29.65H31.5774C35.5066 29.75 38.3913 26.4 38.4908 22.75C38.5903 19.1 35.9045 16.2 31.5774 16.1L20.7845 15.85L20.3368 20.7Z" stroke="#F2EFE8" stroke-width="0.473684"/>
<path d="M57.8882 23C57.8882 13.0589 65.9048 5 75.7934 5C85.6821 5 93.6987 13.0589 93.6987 23V85H61.8671C59.6698 85 57.8882 83.209 57.8882 81V23Z" stroke="#BA9130" stroke-width="0.852632"/>
<path opacity="0.88" d="M59.3802 23C59.3802 13.9 66.6916 6.5 75.7934 6.5C84.8952 6.5 92.2066 13.9 92.2066 23V83.5H63.1105C61.2205 83.5 59.3802 82 59.3802 81V23Z" stroke="#BA9130" stroke-width="0.757895"/>
<path opacity="0.75" d="M60.8723 23C60.8723 14.75 67.4873 8 75.7934 8C84.0994 8 90.7144 14.75 90.7144 23V82H64.3539C62.7623 82 60.8723 80.8 60.8723 79.5V23Z" stroke="#BA9130" stroke-opacity="0.8" stroke-width="0.757895"/>
<path opacity="0.62" d="M62.3645 23C62.3645 15.6 68.2832 9.5 75.7934 9.5C83.3037 9.5 89.2224 15.6 89.2224 23V80.5H65.5974C64.3042 80.5 62.3645 79.6 62.3645 78V23Z" stroke="#F2EFE8" stroke-width="0.663158"/>
<path opacity="0.5" d="M63.8566 23C63.8566 16.45 69.0789 11 75.7934 11C82.5079 11 87.7303 16.45 87.7303 23V79H66.8408C65.846 79 63.8566 78.25 63.8566 76.5V23Z" stroke="#F2EFE8" stroke-width="0.663158"/>
<path opacity="0.37" d="M65.3486 23C65.3486 17.3 69.8747 12.5 75.7934 12.5C81.7121 12.5 86.2381 17.3 86.2381 23V77H68.0842C67.3878 77 65.3486 76.6 65.3486 75V23Z" stroke="#F2EFE8" stroke-width="0.568421"/>
<path opacity="0.25" d="M66.8408 23C66.8408 18.15 70.6706 14 75.7935 14C80.9163 14 84.7461 18.15 84.7461 23V75.5H69.3277C68.9298 75.5 66.8408 75.4 66.8408 73.5V23Z" stroke="#F2EFE8" stroke-width="0.568421"/>
<path opacity="0.13" d="M68.3329 23C68.3329 19 71.4663 15.5 75.7934 15.5C80.1205 15.5 83.2539 19 83.2539 23V74H70.571C70.4716 74 68.3329 74.2 68.3329 72V23Z" stroke="#F2EFE8" stroke-width="0.473684"/>
<path opacity="0.06" d="M69.825 23C69.825 19.85 72.2621 17 75.7934 17C79.3247 17 81.7618 19.85 81.7618 23V72.5H71.8144C72.0631 72.5 69.825 72.9 69.825 70.5V23Z" stroke="#F2EFE8" stroke-width="0.473684"/>
<path d="M101.657 15C101.657 9.47716 106.11 5 111.604 5C117.098 5 121.551 9.47716 121.551 15V65C121.551 76.0455 112.644 85 101.657 85V15Z" stroke="#BA9130" stroke-width="0.852632"/>
<path opacity="0.88" d="M103 15C103 10.2 106.879 6.5 111.604 6.5C116.329 6.5 120.208 10.2 120.208 15V65C120.208 75 112.151 83.5 103 83.5V15Z" stroke="#BA9130" stroke-width="0.757895"/>
<path opacity="0.75" d="M104.342 15C104.342 10.95 107.675 8 111.604 8C115.533 8 118.866 10.95 118.866 15V65C118.866 74 111.654 82 104.342 82V15Z" stroke="#BA9130" stroke-opacity="0.8" stroke-width="0.757895"/>
<path opacity="0.62" d="M105.685 15C105.685 11.7 108.471 9.5 111.604 9.5C114.737 9.5 117.523 11.7 117.523 15V65C117.523 73 111.156 80.5 105.685 80.5V15Z" stroke="#F2EFE8" stroke-width="0.663158"/>
<path opacity="0.5" d="M107.028 15C107.028 12.45 109.266 11 111.604 11C113.942 11 116.18 12.45 116.18 15V65C116.18 72 110.659 79 107.028 79V15Z" stroke="#F2EFE8" stroke-width="0.663158"/>
<path opacity="0.37" d="M108.371 15C108.371 13.2 110.062 12.5 111.604 12.5C113.146 12.5 114.837 13.2 114.837 15V65C114.837 71 109.664 77.5 108.371 77.5V15Z" stroke="#F2EFE8" stroke-width="0.568421"/>
<path opacity="0.25" d="M109.714 15C109.714 13.95 110.858 14 111.604 14C112.35 14 113.494 13.95 113.494 15V65C113.494 70 109.664 76 109.714 76V15Z" stroke="#F2EFE8" stroke-width="0.568421"/>
<path opacity="0.13" d="M110.609 14.9999C110.609 14.5999 111.604 15.4999 111.604 15.4999C111.604 15.4999 112.599 14.5999 112.599 14.9999V64.9999C112.599 68.9999 110.858 74.4999 110.609 74.4999V14.9999Z" stroke="#F2EFE8" stroke-width="0.473684"/>
<path d="M122.58 59.166C122.601 73.4525 134.138 85.0175 148.349 84.997L148.315 60.867C148.295 46.5803 136.757 35.0358 122.546 35.0358L122.58 59.166Z" stroke="#BA9130" stroke-width="0.852632"/>
<path opacity="0.88" d="M124.038 59.15C124.038 72.45 134.732 83.5 148.21 83.5L148.161 60.85C148.161 47.55 137.368 36.5 124.038 36.55V59.15Z" stroke="#BA9130" stroke-width="0.757895"/>
<path opacity="0.75" d="M125.48 59.1501C125.48 71.4501 135.328 82.0001 148.061 82.0001L148.011 60.8501C148.011 48.5501 137.964 37.9501 125.48 38.0001V59.1501Z" stroke="#BA9130" stroke-opacity="0.8" stroke-width="0.757895"/>
<path opacity="0.62" d="M126.923 59.15C126.923 70.45 135.925 80.5 147.912 80.5L147.862 60.85C147.862 49.55 138.561 39.4 126.923 39.45V59.15Z" stroke="#F2EFE8" stroke-width="0.663158"/>
<path opacity="0.5" d="M128.365 59.15C128.365 69.45 136.522 79 147.763 79L147.713 60.85C147.713 50.55 139.158 40.85 128.365 40.9V59.15Z" stroke="#F2EFE8" stroke-width="0.663158"/>
<path opacity="0.37" d="M129.808 59.1501C129.808 68.4501 137.119 77.5001 147.613 77.5001L147.564 60.8501C147.564 51.5501 139.755 42.3001 129.808 42.3501V59.1501Z" stroke="#F2EFE8" stroke-width="0.568421"/>
<path opacity="0.25" d="M131.25 59.15C131.25 67.45 137.716 76 147.464 76L147.414 60.85C147.414 52.55 140.352 43.75 131.25 43.8V59.15Z" stroke="#F2EFE8" stroke-width="0.568421"/>
<path opacity="0.13" d="M132.692 59.15C132.692 66.45 138.313 74.5 147.315 74.5L147.265 60.85C147.265 53.55 140.949 45.2 132.692 45.25V59.15Z" stroke="#F2EFE8" stroke-width="0.473684"/>
<path d="M122.581 18.3137C122.562 10.9999 128.444 5.05494 135.719 5.03533C142.995 5.01571 148.908 10.9288 148.928 18.2427L148.932 19.7141C148.953 27.8406 142.418 34.4462 134.334 34.4679L122.625 34.4995L122.581 18.3137Z" stroke="#BA9130" stroke-width="0.852632"/>
<path opacity="0.88" d="M124.038 18.3C124.038 11.8 129.261 6.55 135.677 6.5C142.093 6.5 147.365 11.75 147.415 18.25V19.7C147.415 27 141.595 32.9 134.334 32.95H124.088L124.038 18.3Z" stroke="#BA9130" stroke-width="0.757895"/>
<path opacity="0.75" d="M125.48 18.3C125.48 12.65 130.056 8.10005 135.677 8.05005C141.297 8.05005 145.873 12.6 145.922 18.25V19.7C145.922 26.15 140.799 31.4001 134.383 31.4501H125.53L125.48 18.3Z" stroke="#BA9130" stroke-width="0.757895"/>
<path opacity="0.62" d="M126.923 18.3C126.923 13.5 130.852 9.64998 135.677 9.59998C140.501 9.59998 144.43 13.45 144.48 18.25L144.43 19.7C144.43 25.3 140.004 29.9 134.433 29.95H126.973L126.923 18.3Z" stroke="#F2EFE8" stroke-width="0.663158"/>
<path opacity="0.5" d="M128.365 18.3C128.365 14.35 131.648 11.2 135.677 11.15C139.705 11.15 142.988 14.3 143.038 18.25L142.988 19.7C142.988 24.45 139.208 28.4 134.483 28.45H128.415L128.365 18.3Z" stroke="#F2EFE8" stroke-width="0.663158"/>
<path opacity="0.37" d="M129.808 18.3C129.808 15.2 132.444 12.75 135.677 12.7C138.909 12.7 141.595 15.15 141.595 18.25L141.546 19.7C141.546 23.6 138.412 26.9 134.533 26.95H129.857L129.808 18.3Z" stroke="#F2EFE8" stroke-width="0.568421"/>
<path opacity="0.25" d="M131.25 18.3C131.25 16.05 133.239 14.3 135.677 14.25C138.114 14.25 140.153 16 140.153 18.25L140.103 19.7C140.103 22.75 137.616 25.4 134.582 25.45H131.3L131.25 18.3Z" stroke="#F2EFE8" stroke-width="0.568421"/>
<path opacity="0.13" d="M132.692 18.3C132.692 16.9 134.035 15.85 135.677 15.8C137.318 15.8 138.711 16.85 138.711 18.25L138.661 19.7C138.661 21.9 136.821 23.9 134.632 23.95H132.742L132.692 18.3Z" stroke="#F2EFE8" stroke-width="0.473684"/>
<path d="M156.865 23C156.865 13.0589 164.881 5 174.77 5C184.658 5 192.675 13.0589 192.675 23V81C192.675 83.209 190.893 85 188.696 85H156.865V23Z" stroke="#BA9130" stroke-width="0.852632"/>
<path opacity="0.88" d="M158.357 23C158.357 13.9 165.668 6.5 174.77 6.5C183.872 6.5 191.183 13.9 191.183 23V81C191.183 82.45 189.641 83.5 188.696 83.5H158.357V23Z" stroke="#BA9130" stroke-width="0.757895"/>
<path opacity="0.75" d="M159.849 23C159.849 14.75 166.464 8 174.77 8C183.076 8 189.691 14.75 189.691 23V80C189.691 81.6 188.447 82 187.701 82H159.849V23Z" stroke="#BA9130" stroke-opacity="0.8" stroke-width="0.757895"/>
<path opacity="0.62" d="M161.341 23C161.341 15.6 167.26 9.5 174.77 9.5C182.28 9.5 188.199 15.6 188.199 23V79C188.199 80.75 187.254 81 186.707 81H161.341V23Z" stroke="#F2EFE8" stroke-width="0.663158"/>
<path opacity="0.5" d="M162.833 23C162.833 16.45 168.055 11 174.77 11C181.484 11 186.707 16.45 186.707 23V78C186.707 79.9 186.06 80 185.712 80H162.833V23Z" stroke="#F2EFE8" stroke-width="0.663158"/>
<path opacity="0.37" d="M164.325 23C164.325 17.3 168.851 12.5 174.77 12.5C180.688 12.5 185.214 17.3 185.214 23V77C185.214 79.05 184.866 79 184.717 79H164.325V23Z" stroke="#F2EFE8" stroke-width="0.568421"/>
<path opacity="0.25" d="M165.817 23C165.817 18.15 169.647 14 174.77 14C179.893 14 183.722 18.15 183.722 23V76C183.722 78.2 183.673 78 183.722 78H165.817V23Z" stroke="#F2EFE8" stroke-width="0.568421"/>
<path opacity="0.13" d="M167.309 23C167.309 19 170.443 15.5 174.77 15.5C179.097 15.5 182.23 19 182.23 23V75C182.23 77.35 182.479 77 182.728 77H167.309V23Z" stroke="#F2EFE8" stroke-width="0.473684"/>
<path opacity="0.06" d="M168.801 23C168.801 19.85 171.238 17 174.77 17C178.301 17 180.738 19.85 180.738 23V74C180.738 76.5 181.484 76 181.733 76H168.801V23Z" stroke="#F2EFE8" stroke-width="0.473684"/>
<path opacity="0.22" d="M208.342 7V84" stroke="#BA9130" stroke-width="0.663158"/>
<path d="M217.736 52.0914V34.5714H221.144V52.0914H217.736ZM223.548 52.0914L229.524 34.5714H235.092L241.236 52.0914H237.732L232.524 36.8994L233.748 37.4274H230.748L231.996 36.8994L226.956 52.0914H223.548ZM227.724 47.4354L228.804 44.5554H235.908L236.964 47.4354H227.724ZM243.598 52.0914V34.4514H247.006V52.0914H243.598ZM254.302 52.0914L248.926 44.4594H252.742L258.286 52.0914H254.302ZM245.998 46.2354V43.4754H250.462C251.086 43.4754 251.622 43.3474 252.07 43.0914C252.534 42.8354 252.894 42.4754 253.15 42.0114C253.406 41.5474 253.534 41.0194 253.534 40.4274C253.534 39.8194 253.406 39.2834 253.15 38.8194C252.894 38.3554 252.534 37.9954 252.07 37.7394C251.622 37.4834 251.086 37.3554 250.462 37.3554H245.998V34.4514H250.102C251.51 34.4514 252.726 34.6594 253.75 35.0754C254.79 35.4914 255.59 36.1234 256.15 36.9714C256.71 37.8194 256.99 38.8834 256.99 40.1634V40.5474C256.99 41.8434 256.702 42.9074 256.126 43.7394C255.566 44.5714 254.774 45.1954 253.75 45.6114C252.726 46.0274 251.51 46.2354 250.102 46.2354H245.998ZM258.904 52.0914L264.88 34.5714H270.448L276.592 52.0914H273.088L267.88 36.8994L269.104 37.4274H266.104L267.352 36.8994L262.312 52.0914H258.904ZM263.08 47.4354L264.16 44.5554H271.264L272.32 47.4354H263.08Z" fill="#BA9130"/>
<path d="M222.882 62.7409C222.8 62.4917 222.693 62.2684 222.56 62.0711C222.429 61.8712 222.272 61.701 222.09 61.5604C221.91 61.4198 221.705 61.3124 221.475 61.2384C221.246 61.1644 220.994 61.1274 220.72 61.1274C220.271 61.1274 219.863 61.2434 219.496 61.4753C219.128 61.7072 218.836 62.0489 218.618 62.5003C218.401 62.9518 218.293 63.5057 218.293 64.1619C218.293 64.8182 218.403 65.3721 218.622 65.8235C218.842 66.275 219.139 66.6167 219.514 66.8486C219.889 67.0805 220.311 67.1965 220.78 67.1965C221.214 67.1965 221.596 67.104 221.927 66.9189C222.26 66.7314 222.519 66.4675 222.704 66.127C222.892 65.7841 222.985 65.3807 222.985 64.9169L223.267 64.9761H220.987V64.1619H223.873V64.9761C223.873 65.6003 223.74 66.143 223.474 66.6044C223.21 67.0657 222.845 67.4235 222.378 67.6776C221.915 67.9292 221.382 68.055 220.78 68.055C220.109 68.055 219.519 67.8971 219.011 67.5814C218.505 67.2656 218.11 66.8165 217.827 66.2343C217.545 65.6521 217.405 64.9613 217.405 64.1619C217.405 63.5624 217.485 63.0234 217.645 62.5448C217.808 62.0637 218.037 61.6541 218.334 61.3161C218.63 60.9781 218.98 60.7191 219.385 60.539C219.789 60.3589 220.234 60.2688 220.72 60.2688C221.12 60.2688 221.493 60.3293 221.838 60.4502C222.186 60.5686 222.496 60.7376 222.767 60.9572C223.041 61.1743 223.269 61.4346 223.452 61.738C223.634 62.039 223.76 62.3733 223.829 62.7409H222.882ZM225.522 67.9514H224.56L227.343 60.3725H228.29L231.073 67.9514H230.111L227.846 61.5715H227.787L225.522 67.9514ZM225.877 64.9909H229.756V65.805H225.877V64.9909ZM232.254 60.3725H233.349L235.925 66.6636H236.013L238.589 60.3725H239.684V67.9514H238.826V62.1932H238.752L236.383 67.9514H235.555L233.186 62.1932H233.112V67.9514H232.254V60.3725ZM241.525 67.9514V60.3725H246.099V61.1866H242.442V63.7475H245.862V64.5616H242.442V67.1373H246.158V67.9514H241.525ZM251.898 62.2672C251.853 61.8922 251.673 61.6011 251.357 61.3938C251.041 61.1866 250.654 61.083 250.195 61.083C249.86 61.083 249.566 61.1373 249.315 61.2458C249.065 61.3544 248.87 61.5036 248.73 61.6936C248.592 61.8836 248.523 62.0994 248.523 62.3412C248.523 62.5435 248.571 62.7175 248.667 62.863C248.766 63.0061 248.891 63.1258 249.044 63.222C249.197 63.3157 249.358 63.3934 249.525 63.4551C249.693 63.5143 249.847 63.5624 249.988 63.5994L250.758 63.8067C250.955 63.8585 251.175 63.93 251.416 64.0213C251.661 64.1126 251.894 64.2372 252.116 64.3951C252.34 64.5505 252.525 64.7503 252.671 64.9946C252.817 65.2388 252.889 65.5386 252.889 65.8939C252.889 66.3034 252.782 66.6735 252.567 67.004C252.355 67.3346 252.044 67.5974 251.635 67.7923C251.228 67.9872 250.733 68.0846 250.151 68.0846C249.608 68.0846 249.138 67.9971 248.741 67.8219C248.346 67.6467 248.035 67.4025 247.808 67.0892C247.584 66.7758 247.457 66.4119 247.427 65.9975H248.375C248.399 66.2837 248.495 66.5205 248.663 66.708C248.833 66.893 249.048 67.0312 249.307 67.1225C249.569 67.2113 249.85 67.2557 250.151 67.2557C250.501 67.2557 250.816 67.1989 251.095 67.0855C251.373 66.9695 251.594 66.8091 251.757 66.6044C251.92 66.3971 252.001 66.1554 252.001 65.879C252.001 65.6274 251.931 65.4226 251.79 65.2647C251.65 65.1068 251.465 64.9786 251.235 64.8799C251.006 64.7812 250.758 64.6948 250.491 64.6208L249.559 64.3544C248.967 64.1841 248.498 63.9411 248.153 63.6253C247.807 63.3096 247.634 62.8963 247.634 62.3856C247.634 61.9613 247.749 61.5912 247.979 61.2754C248.21 60.9572 248.521 60.7105 248.911 60.5353C249.303 60.3577 249.741 60.2688 250.225 60.2688C250.713 60.2688 251.148 60.3564 251.528 60.5316C251.907 60.7043 252.208 60.9411 252.43 61.2421C252.655 61.5431 252.773 61.8848 252.786 62.2672H251.898Z" fill="#F2EFE8"/>
</g>
<defs>
<clipPath id="clip0_200_153">
<rect width="301" height="95" rx="16" fill="white"/>
</clipPath>
</defs>
</svg>
