<svg width="179" height="87" viewBox="0 0 179 87" fill="none" xmlns="http://www.w3.org/2000/svg">
<path d="M88.55 44.0498C89.9308 44.0498 91.05 43.6021 91.05 43.0498C91.05 42.4975 89.9308 42.0498 88.55 42.0498C87.1693 42.0498 86.05 42.4975 86.05 43.0498C86.05 43.6021 87.1693 44.0498 88.55 44.0498Z" stroke="#BA9130" stroke-width="0.95"/>
<path opacity="0.92" d="M88.55 46.0498C92.6922 46.0498 96.05 44.7067 96.05 43.0498C96.05 41.393 92.6922 40.0498 88.55 40.0498C84.4079 40.0498 81.05 41.393 81.05 43.0498C81.05 44.7067 84.4079 46.0498 88.55 46.0498Z" stroke="#BA9130" stroke-width="0.88"/>
<path opacity="0.84" d="M89.05 49.0498C95.6775 49.0498 101.05 46.3635 101.05 43.0498C101.05 39.7361 95.6775 37.0498 89.05 37.0498C82.4226 37.0498 77.05 39.7361 77.05 43.0498C77.05 46.3635 82.4226 49.0498 89.05 49.0498Z" stroke="#BA9130" stroke-width="0.8"/>
<path opacity="0.76" d="M89.05 52.0498C98.9912 52.0498 107.05 48.0204 107.05 43.0498C107.05 38.0792 98.9912 34.0498 89.05 34.0498C79.1089 34.0498 71.05 38.0792 71.05 43.0498C71.05 48.0204 79.1089 52.0498 89.05 52.0498Z" stroke="#BA9130" stroke-width="0.72"/>
<path opacity="0.68" d="M89.05 55.0498C102.857 55.0498 114.05 49.6772 114.05 43.0498C114.05 36.4224 102.857 31.0498 89.05 31.0498C75.2429 31.0498 64.05 36.4224 64.05 43.0498C64.05 49.6772 75.2429 55.0498 89.05 55.0498Z" stroke="#C8A84A" stroke-width="0.64"/>
<path opacity="0.6" d="M89.05 58.0498C106.723 58.0498 121.05 51.3341 121.05 43.0498C121.05 34.7655 106.723 28.0498 89.05 28.0498C71.3769 28.0498 57.05 34.7655 57.05 43.0498C57.05 51.3341 71.3769 58.0498 89.05 58.0498Z" stroke="#C8A84A" stroke-width="0.56"/>
<path opacity="0.5" d="M89.05 62.0498C111.141 62.0498 129.05 53.5432 129.05 43.0498C129.05 32.5564 111.141 24.0498 89.05 24.0498C66.9587 24.0498 49.05 32.5564 49.05 43.0498C49.05 53.5432 66.9587 62.0498 89.05 62.0498Z" stroke="#4DAFC2" stroke-width="0.48"/>
<path opacity="0.4" d="M88.55 66.0498C115.336 66.0498 137.05 55.7524 137.05 43.0498C137.05 30.3473 115.336 20.0498 88.55 20.0498C61.7642 20.0498 40.05 30.3473 40.05 43.0498C40.05 55.7524 61.7642 66.0498 88.55 66.0498Z" stroke="#4DAFC2" stroke-width="0.4"/>
<path opacity="0.3" d="M88.55 71.0498C120.306 71.0498 146.05 58.5138 146.05 43.0498C146.05 27.5858 120.306 15.0498 88.55 15.0498C56.7937 15.0498 31.05 27.5858 31.05 43.0498C31.05 58.5138 56.7937 71.0498 88.55 71.0498Z" stroke="#9FCFDC" stroke-width="0.32"/>
<path opacity="0.2" d="M89.05 75.0498C126.053 75.0498 156.05 60.7229 156.05 43.0498C156.05 25.3767 126.053 11.0498 89.05 11.0498C52.047 11.0498 22.05 25.3767 22.05 43.0498C22.05 60.7229 52.047 75.0498 89.05 75.0498Z" stroke="#9FCFDC" stroke-width="0.24"/>
<path opacity="0.12" d="M89.05 81.0498C132.128 81.0498 167.05 64.0366 167.05 43.0498C167.05 22.063 132.128 5.0498 89.05 5.0498C45.9718 5.0498 11.05 22.063 11.05 43.0498C11.05 64.0366 45.9718 81.0498 89.05 81.0498Z" stroke="#9FCFDC" stroke-width="0.16"/>
<path opacity="0.06" d="M89.05 86.0498C138.203 86.0498 178.05 66.798 178.05 43.0498C178.05 19.3016 138.203 0.0498047 89.05 0.0498047C39.8967 0.0498047 0.0500488 19.3016 0.0500488 43.0498C0.0500488 66.798 39.8967 86.0498 89.05 86.0498Z" stroke="#9FCFDC" stroke-width="0.1"/>
<path opacity="0.9" d="M89.05 44.0498C89.6023 44.0498 90.05 43.6021 90.05 43.0498C90.05 42.4975 89.6023 42.0498 89.05 42.0498C88.4978 42.0498 88.05 42.4975 88.05 43.0498C88.05 43.6021 88.4978 44.0498 89.05 44.0498Z" fill="#BA9130"/>
</svg>
