<svg width="220" height="95" viewBox="0 0 220 95" fill="none" xmlns="http://www.w3.org/2000/svg">
<path d="M0.320312 23.0265C13.6953 9.47005 29.2995 7.77549 47.1328 17.9429C64.9661 28.1102 80.5703 26.4157 93.9453 12.8592C107.32 -0.697321 126.778 -6.4286 141.746 12.8592C156.715 32.1469 174.195 28.1102 187.57 17.9429C198.716 11.1646 207.633 9.47005 214.32 12.8592" stroke="#BA9130" stroke-width="0.9"/>
<path opacity="0.88" d="M0.320312 26.0617C13.6953 13.0811 29.2995 11.4585 47.1328 21.194C64.9661 30.9295 80.5703 26.6842 93.9453 13.7036C107.32 0.722919 127.267 1.15498 141.281 16.5484C155.296 31.9419 176.987 32.8261 190.362 23.0906C201.507 16.6002 207.633 13.0811 214.32 16.3262" stroke="#BA9130" stroke-width="0.82"/>
<path opacity="0.76" d="M0.320312 29.6199C13.6953 15.8459 29.2995 14.1242 47.1328 24.4547C64.9661 34.7852 80.8138 34.1672 92.8986 19.2894C104.983 4.41159 126.394 5.26901 140.758 19.2894C155.121 33.3098 174.195 34.7852 187.57 24.4547C198.716 17.5677 207.633 15.8459 214.32 19.2894" stroke="#BA9130" stroke-width="0.74"/>
<path opacity="0.64" d="M0.320312 31.1169C13.6953 18.6724 29.2995 17.1169 47.1328 26.4502C64.9661 35.7835 80.5703 34.228 93.9453 21.7835C107.32 9.33908 122.924 9.33908 140.758 21.7835C158.591 34.228 174.195 35.7835 187.57 26.4502C198.716 20.228 207.633 18.6724 214.32 21.7835" stroke="#C8A84A" stroke-width="0.66"/>
<path opacity="0.52" d="M0.320312 35.0502C13.6953 21.9835 29.2995 20.3502 47.1328 30.1502C64.9661 39.9502 80.5703 38.3169 93.9453 25.2502C107.32 12.1835 122.924 12.1835 140.758 25.2502C158.591 38.3169 174.195 39.9502 187.57 30.1502C198.716 23.6169 207.633 21.9835 214.32 25.2502" stroke="#C8A84A" stroke-width="0.58"/>
<path opacity="0.42" d="M0.320312 39.0502C13.6953 25.9835 29.2995 24.3502 47.1328 34.1502C64.9661 43.9502 80.5703 42.3169 93.9453 29.2502C107.32 16.1835 122.924 16.1835 140.758 29.2502C158.591 42.3169 174.195 43.9502 187.57 34.1502C198.716 27.6169 207.633 25.9835 214.32 29.2502" stroke="#4DAFC2" stroke-width="0.5"/>
<path opacity="0.32" d="M0.320312 40.9835C13.6953 27.2946 29.2995 25.5835 47.1328 35.8502C64.9661 46.1169 80.5703 44.4057 93.9453 30.7169C107.32 17.028 122.924 17.028 140.758 30.7169C158.591 44.4057 174.195 46.1169 187.57 35.8502C198.716 29.0058 207.633 27.2946 214.32 30.7169" stroke="#4DAFC2" stroke-width="0.42"/>
<path opacity="0.22" d="M0.320312 44.9835C13.6953 31.2946 29.2995 29.5835 47.1328 39.8502C64.9661 50.1169 80.5703 48.4057 93.9453 34.7169C107.32 21.028 122.924 21.028 140.758 34.7169C158.591 48.4057 174.195 50.1169 187.57 39.8502C198.716 33.0058 207.633 31.2946 214.32 34.7169" stroke="#9FCFDC" stroke-width="0.34"/>
<path opacity="0.14" d="M0.320312 47.0502C13.6953 33.9835 29.2995 32.3502 47.1328 42.1502C64.9661 51.9502 80.5703 50.3169 93.9453 37.2502C107.32 24.1835 122.924 24.1835 140.758 37.2502C158.591 50.3169 174.195 51.9502 187.57 42.1502C198.716 35.6169 207.633 33.9835 214.32 37.2502" stroke="#9FCFDC" stroke-width="0.26"/>
<path opacity="0.08" d="M0.320312 50.9835C13.6953 37.2946 29.2995 35.5835 47.1328 45.8502C64.9661 56.1169 80.5703 54.4057 93.9453 40.7169C107.32 27.028 122.924 27.028 140.758 40.7169C158.591 54.4057 174.195 56.1169 187.57 45.8502C198.716 39.0058 207.633 37.2946 214.32 40.7169" stroke="#9FCFDC" stroke-width="0.18"/>
<path opacity="0.95" d="M1.04248 67.4959C18.9232 54.4102 39.039 56.4764 54.6846 68.529C70.3302 80.5816 79.2706 75.4162 88.2109 58.1982C97.1513 40.9801 112.991 31.67 122.32 50.4502C131.649 69.2304 148.008 67.2069 159.17 51.1802C170.333 35.1535 201.991 44.9499 208.906 50.45C215.82 55.9502 217.925 59.3427 219.042 62.0976" stroke="#BA9130" stroke-width="0.85"/>
<path opacity="0.82" d="M0.320312 69.9478C18.1536 57.4742 35.987 57.8025 53.8203 70.9326C67.1953 80.7802 80.2602 73.7558 89.1768 57.3431C98.0935 40.9304 111.507 43.778 120.812 57.3431C130.116 70.9082 147.445 70.2927 160.82 55.5213C173.081 43.3759 188.685 41.5539 207.633 53.6993C210.977 55.9971 213.206 58.459 214.32 61.085" stroke="#BA9130" stroke-width="0.78"/>
<path opacity="0.68" d="M0.320312 73.6973C18.1536 60.7861 35.987 61.1259 53.8203 74.7166C67.1953 84.9097 78.3411 81.512 87.2578 64.5236C96.1745 47.5351 107.32 45.8363 120.695 59.427C134.07 73.0178 147.445 72.1683 160.82 56.8788C173.081 44.3073 188.685 44.3073 207.633 56.8788C210.977 59.2571 213.206 61.8054 214.32 64.5236" stroke="#C8A84A" stroke-width="0.7"/>
<path opacity="0.55" d="M0.320312 76.9019C18.1536 64.382 35.987 64.7115 53.8203 77.8903C67.1953 87.7745 78.3411 84.4798 87.2578 68.0062C96.1745 51.5326 107.32 49.8852 120.695 63.0641C134.07 76.243 147.445 75.4193 160.82 60.5931C173.081 48.4026 188.685 48.4026 207.633 60.5931C210.977 62.8994 213.206 65.3704 214.32 68.0062" stroke="#C8A84A" stroke-width="0.62"/>
<path opacity="0.42" d="M0.320312 79.6973C18.1536 66.7861 35.987 67.1259 53.8203 80.7166C67.1953 90.9097 78.3411 87.512 87.2578 70.5236C96.1745 53.5351 107.32 51.8363 120.695 65.427C134.07 79.0178 147.445 78.1683 160.82 62.8788C173.081 50.3073 188.685 50.3073 207.633 62.8788C210.977 65.2571 213.206 67.8054 214.32 70.5236" stroke="#4DAFC2" stroke-width="0.54"/>
<path opacity="0.3" d="M0.320312 82.1066C18.1536 69.9779 35.987 70.297 53.8203 83.0641C67.1953 92.6394 78.3411 89.4476 87.2578 73.4888C96.1745 57.53 107.32 55.9341 120.695 68.7012C134.07 81.4682 147.445 80.6703 160.82 66.3073C173.081 54.4978 188.685 54.4978 207.633 66.3073C210.977 68.5416 213.206 70.9354 214.32 73.4888" stroke="#4DAFC2" stroke-width="0.44"/>
<path opacity="0.19" d="M0.320312 85.9019C18.1536 73.382 35.987 73.7115 53.8203 86.8903C67.1953 96.7745 78.3411 93.4798 87.2578 77.0062C96.1745 60.5326 107.32 58.8852 120.695 72.0641C134.07 85.243 147.445 84.4193 160.82 69.5931C173.081 57.4026 188.685 57.4026 207.633 69.5931C210.977 71.8994 213.206 74.3704 214.32 77.0062" stroke="#9FCFDC" stroke-width="0.34"/>
<path opacity="0.1" d="M0.320312 87.6973C18.1536 74.7861 35.987 75.1259 53.8203 88.7166C67.1953 98.9097 78.3411 95.512 87.2578 78.5236C96.1745 61.5351 107.32 59.8363 120.695 73.427C134.07 87.0178 147.445 86.1683 160.82 70.8788C173.081 58.3073 188.685 58.3073 207.633 70.8788C210.977 73.2571 213.206 75.8054 214.32 78.5236" stroke="#9FCFDC" stroke-width="0.22"/>
</svg>
