<svg width="104" height="50" viewBox="0 0 104 50" fill="none" xmlns="http://www.w3.org/2000/svg">
<path opacity="0.8" d="M51.0601 27.0601C54.3738 27.0601 57.0601 25.7169 57.0601 24.0601C57.0601 22.4032 54.3738 21.0601 51.0601 21.0601C47.7464 21.0601 45.0601 22.4032 45.0601 24.0601C45.0601 25.7169 47.7464 27.0601 51.0601 27.0601Z" stroke="#9FCFDC" stroke-width="0.72"/>
<path opacity="0.7" d="M51.5601 29.0601C57.359 29.0601 62.0601 26.8215 62.0601 24.0601C62.0601 21.2986 57.359 19.0601 51.5601 19.0601C45.7611 19.0601 41.0601 21.2986 41.0601 24.0601C41.0601 26.8215 45.7611 29.0601 51.5601 29.0601Z" stroke="#9FCFDC" stroke-width="0.64"/>
<path opacity="0.6" d="M51.5601 32.0601C60.1205 32.0601 67.0601 28.7022 67.0601 24.5601C67.0601 20.4179 60.1205 17.0601 51.5601 17.0601C42.9996 17.0601 36.0601 20.4179 36.0601 24.5601C36.0601 28.7022 42.9996 32.0601 51.5601 32.0601Z" stroke="#9FCFDC" stroke-width="0.56"/>
<path opacity="0.5" d="M51.5601 35.0601C63.4342 35.0601 73.0601 30.359 73.0601 24.5601C73.0601 18.7611 63.4342 14.0601 51.5601 14.0601C39.6859 14.0601 30.0601 18.7611 30.0601 24.5601C30.0601 30.359 39.6859 35.0601 51.5601 35.0601Z" stroke="#4DAFC2" stroke-width="0.48"/>
<path opacity="0.4" d="M51.5601 38.0601C67.3002 38.0601 80.0601 32.0159 80.0601 24.5601C80.0601 17.1042 67.3002 11.0601 51.5601 11.0601C35.8199 11.0601 23.0601 17.1042 23.0601 24.5601C23.0601 32.0159 35.8199 38.0601 51.5601 38.0601Z" stroke="#4DAFC2" stroke-width="0.4"/>
<path opacity="0.28" d="M51.0601 42.0601C70.39 42.0601 86.0601 34.4489 86.0601 25.0601C86.0601 15.6712 70.39 8.06006 51.0601 8.06006C31.7301 8.06006 16.0601 15.6712 16.0601 25.0601C16.0601 34.4489 31.7301 42.0601 51.0601 42.0601Z" stroke="#9FCFDC" stroke-width="0.3"/>
<path opacity="0.16" d="M51.0601 45.0601C74.8083 45.0601 94.0601 35.8819 94.0601 24.5601C94.0601 13.2382 74.8083 4.06006 51.0601 4.06006C27.3118 4.06006 8.06006 13.2382 8.06006 24.5601C8.06006 35.8819 27.3118 45.0601 51.0601 45.0601Z" stroke="#9FCFDC" stroke-width="0.2"/>
<path opacity="0.08" d="M51.5601 49.0601C80.0027 49.0601 103.06 38.091 103.06 24.5601C103.06 11.0291 80.0027 0.0600586 51.5601 0.0600586C23.1174 0.0600586 0.0600586 11.0291 0.0600586 24.5601C0.0600586 38.091 23.1174 49.0601 51.5601 49.0601Z" stroke="#9FCFDC" stroke-width="0.12"/>
</svg>
