<svg width="40" height="40" viewBox="0 0 40 40" fill="none" xmlns="http://www.w3.org/2000/svg">
<path d="M20 38.3332C30.1252 38.3332 38.3333 30.1251 38.3333 19.9998C38.3333 9.87462 30.1252 1.6665 20 1.6665C9.87474 1.6665 1.66663 9.87462 1.66663 19.9998C1.66663 30.1251 9.87474 38.3332 20 38.3332Z" stroke="#C9A043" stroke-width="0.9"/>
<path opacity="0.82" d="M20 33.3332C27.3638 33.3332 33.3333 27.3636 33.3333 19.9998C33.3333 12.636 27.3638 6.6665 20 6.6665C12.6362 6.6665 6.66663 12.636 6.66663 19.9998C6.66663 27.3636 12.6362 33.3332 20 33.3332Z" stroke="#C9A043" stroke-width="0.8"/>
<path opacity="0.6" d="M20 28.3332C24.6023 28.3332 28.3333 24.6022 28.3333 19.9998C28.3333 15.3975 24.6023 11.6665 20 11.6665C15.3976 11.6665 11.6666 15.3975 11.6666 19.9998C11.6666 24.6022 15.3976 28.3332 20 28.3332Z" stroke="#C9A043" stroke-width="0.7"/>
<path opacity="0.32" d="M20 23.3332C21.8409 23.3332 23.3333 21.8408 23.3333 19.9998C23.3333 18.1589 21.8409 16.6665 20 16.6665C18.159 16.6665 16.6666 18.1589 16.6666 19.9998C16.6666 21.8408 18.159 23.3332 20 23.3332Z" stroke="#C9A043" stroke-width="0.5"/>
<path d="M15 20H25" stroke="#C9A043" stroke-width="1.2" stroke-linecap="round"/>
<path d="M20.8334 15.8335L25 20.0002L20.8334 24.1668" stroke="#C9A043" stroke-width="1.2" stroke-linecap="round" stroke-linejoin="round"/>
</svg>
