<svg width="185" height="81" viewBox="0 0 185 81" fill="none" xmlns="http://www.w3.org/2000/svg">
<path d="M41.7079 79.5843H0.42627V58.5579C0.42627 47.2187 9.66747 38.0264 21.0671 38.0264C32.4666 38.0264 41.7079 47.2187 41.7079 58.5579V79.5843Z" stroke="#19272B" stroke-width="0.852632"/>
<path opacity="0.88" d="M40.2157 79.5844H1.91833V58.5581C1.91833 48.0202 10.4731 39.5107 21.067 39.5107C31.661 39.5107 40.2157 48.0202 40.2157 58.5581V79.5844Z" stroke="#19272B" stroke-width="0.757895"/>
<path opacity="0.74" d="M38.7236 79.5841H3.4104V58.5578C3.4104 48.8115 11.2688 40.9946 21.067 40.9946C30.8651 40.9946 38.7236 48.8115 38.7236 58.5578V79.5841Z" stroke="#19272B" stroke-width="0.757895"/>
<path opacity="0.6" d="M37.2315 79.5843H4.90259V58.558C4.90259 49.6032 12.0647 42.479 21.0671 42.479C30.0694 42.479 37.2315 49.6032 37.2315 58.558V79.5843Z" stroke="#3C5D66" stroke-width="0.663158"/>
<path opacity="0.47" d="M35.7394 79.5844H6.39465V58.5581C6.39465 50.395 12.8604 43.9634 21.067 43.9634C29.2736 43.9634 35.7394 50.395 35.7394 58.5581V79.5844Z" stroke="#3C5D66" stroke-width="0.663158"/>
<path opacity="0.35" d="M34.2472 79.5841H7.88672V58.5578C7.88672 51.1862 13.6562 45.4473 21.067 45.4473C28.4778 45.4473 34.2472 51.1862 34.2472 58.5578V79.5841Z" stroke="#C8A84A" stroke-width="0.568421"/>
<path opacity="0.22" d="M32.7552 79.5843H9.37891V58.558C9.37891 51.978 14.4521 46.9316 21.0671 46.9316C27.6821 46.9316 32.7552 51.978 32.7552 58.558V79.5843Z" stroke="#BA9130" stroke-width="0.568421"/>
<path opacity="0.11" d="M31.2631 79.5844H10.871V58.5581C10.871 52.7697 15.2478 48.416 21.067 48.416C26.8862 48.416 31.2631 52.7697 31.2631 58.5581V79.5844Z" stroke="#BA9130" stroke-width="0.473684"/>
<path opacity="0.05" d="M29.7709 79.5841H12.363V58.5578C12.363 53.561 16.0436 49.8999 21.067 49.8999C26.0904 49.8999 29.7709 53.561 29.7709 58.5578V79.5841Z" stroke="#BA9130" stroke-width="0.473684"/>
<path d="M0.882856 16.276C0.766283 27.2146 9.58645 36.1761 20.5832 36.292L22.5743 36.313C32.4715 36.4174 40.5797 28.5213 40.6846 18.6765C40.7895 8.83182 32.8514 0.766467 22.9543 0.662106L1.05172 0.431152L0.882856 16.276Z" stroke="#19272B" stroke-width="0.852632"/>
<path opacity="0.88" d="M2.41571 16.2579C2.31623 26.301 10.3736 34.5136 20.6194 34.6126H22.6089C31.6112 34.7115 38.9723 27.5379 39.0718 18.5831C39.1712 9.62838 32.0091 2.30628 22.9073 2.20733L2.56492 1.95996L2.41571 16.2579Z" stroke="#19272B" stroke-width="0.757895"/>
<path opacity="0.74" d="M3.90786 16.2084C3.80838 25.361 11.1694 32.881 20.6692 32.98H22.6089C30.7657 33.0789 37.3807 26.5484 37.4802 18.4842C37.5797 10.42 31.1636 3.83997 22.8576 3.74102L4.1068 3.49365L3.90786 16.2084Z" stroke="#19272B" stroke-width="0.757895"/>
<path opacity="0.6" d="M5.3999 16.1589C5.30043 24.4705 11.9652 31.2484 20.6691 31.3473H22.6089C29.9202 31.4463 35.7891 25.5589 35.8886 18.3852C35.9881 11.2116 30.3181 5.37366 22.8078 5.27471L5.64859 5.02734L5.3999 16.1589Z" stroke="#3C5D66" stroke-width="0.663158"/>
<path opacity="0.47" d="M6.89197 16.1095C6.7925 23.58 12.7609 29.6158 20.7188 29.7147H22.6088C29.0746 29.8137 34.1975 24.5695 34.297 18.2863C34.3964 12.0031 29.4725 6.90735 22.758 6.8084L7.19039 6.56104L6.89197 16.1095Z" stroke="#3C5D66" stroke-width="0.663158"/>
<path opacity="0.35" d="M8.38407 16.06C8.2846 22.6895 13.5567 27.9831 20.7685 28.0821H22.6088C28.2291 28.181 32.6059 23.58 32.7054 18.1874C32.8049 12.7947 28.627 8.44104 22.7083 8.3421L8.73223 8.09473L8.38407 16.06Z" stroke="#C8A84A" stroke-width="0.568421"/>
<path opacity="0.22" d="M9.87622 16.0105C9.77675 21.7989 14.3525 26.3505 20.8183 26.4495H22.6089C27.3836 26.5484 31.0144 22.5905 31.1139 18.0884C31.2133 13.5863 27.7815 9.97473 22.6586 9.87579L10.2741 9.62842L9.87622 16.0105Z" stroke="#BA9130" stroke-width="0.568421"/>
<path opacity="0.11" d="M11.3683 15.9611C11.2689 20.9084 15.1483 24.7179 20.8681 24.8168H22.6089C26.5381 24.9158 29.4228 21.6011 29.5223 17.9895C29.6217 14.3779 26.936 11.5084 22.6089 11.4095L11.816 11.1621L11.3683 15.9611Z" stroke="#BA9130" stroke-width="0.473684"/>
<path d="M48.9197 18.2368C48.9197 8.40034 56.9363 0.42627 66.8249 0.42627C76.7136 0.42627 84.7302 8.40029 84.7302 18.2368V79.5842H52.8986C50.7013 79.5842 48.9197 77.812 48.9197 75.6263V18.2368Z" stroke="#19272B" stroke-width="0.852632"/>
<path opacity="0.88" d="M50.4117 18.237C50.4117 9.23275 57.7231 1.91064 66.8249 1.91064C75.9267 1.91064 83.2381 9.23275 83.2381 18.237V78.1001H54.142C52.252 78.1001 50.4117 76.6159 50.4117 75.6264V18.237Z" stroke="#19272B" stroke-width="0.757895"/>
<path opacity="0.74" d="M51.9038 18.2369C51.9038 10.0737 58.5188 3.39478 66.8249 3.39478C75.1309 3.39478 81.7459 10.0737 81.7459 18.2369V76.6158H55.3854C53.7938 76.6158 51.9038 75.4285 51.9038 74.1421V18.2369Z" stroke="#19272B" stroke-width="0.757895"/>
<path opacity="0.6" d="M53.396 18.2368C53.396 10.9147 59.3147 4.87891 66.8249 4.87891C74.3352 4.87891 80.2539 10.9147 80.2539 18.2368V75.1315H56.6289C55.3357 75.1315 53.396 74.241 53.396 72.6579V18.2368Z" stroke="#3C5D66" stroke-width="0.663158"/>
<path opacity="0.47" d="M54.8881 18.237C54.8881 11.7559 60.1104 6.36328 66.8249 6.36328C73.5394 6.36328 78.7617 11.7559 78.7617 18.237V73.6475H57.8723C56.8775 73.6475 54.8881 72.9054 54.8881 71.1738V18.237Z" stroke="#3C5D66" stroke-width="0.663158"/>
<path opacity="0.35" d="M56.3801 18.2369C56.3801 12.5969 60.9062 7.84741 66.8249 7.84741C72.7435 7.84741 77.2696 12.5969 77.2696 18.2369V71.6685H59.1157C58.4193 71.6685 56.3801 71.2727 56.3801 69.6895V18.2369Z" stroke="#C8A84A" stroke-width="0.568421"/>
<path opacity="0.22" d="M57.8723 18.2368C57.8723 13.4379 61.7021 9.33154 66.8249 9.33154C71.9478 9.33154 75.7776 13.4379 75.7776 18.2368V70.1842H60.3592C59.9613 70.1842 57.8723 70.0852 57.8723 68.2052V18.2368Z" stroke="#BA9130" stroke-width="0.568421"/>
<path opacity="0.11" d="M59.3644 18.237C59.3644 14.2791 62.4978 10.8159 66.8249 10.8159C71.152 10.8159 74.2854 14.2791 74.2854 18.237V68.7001H61.6025C61.5031 68.7001 59.3644 68.898 59.3644 66.7212V18.237Z" stroke="#BA9130" stroke-width="0.473684"/>
<path opacity="0.05" d="M60.8564 18.2369C60.8564 15.12 63.2936 12.3 66.8249 12.3C70.3562 12.3 72.7933 15.12 72.7933 18.2369V67.2158H62.8459C63.0946 67.2158 60.8564 67.6116 60.8564 65.2369V18.2369Z" stroke="#BA9130" stroke-width="0.473684"/>
<path d="M92.6881 10.321C92.6881 4.8563 97.1415 0.42627 102.635 0.42627C108.129 0.42627 112.583 4.8563 112.583 10.321V59.7947C112.583 70.7239 103.675 79.5842 92.6881 79.5842V10.321Z" stroke="#19272B" stroke-width="0.852632"/>
<path opacity="0.88" d="M94.031 10.3212C94.031 5.5717 97.9105 1.91064 102.635 1.91064C107.36 1.91064 111.24 5.5717 111.24 10.3212V59.7949C111.24 69.6896 103.183 78.1001 94.031 78.1001V10.3212Z" stroke="#19272B" stroke-width="0.757895"/>
<path opacity="0.74" d="M95.3739 10.3211C95.3739 6.31372 98.7063 3.39478 102.635 3.39478C106.565 3.39478 109.897 6.31372 109.897 10.3211V59.7948C109.897 68.7 102.685 76.6158 95.3739 76.6158V10.3211Z" stroke="#19272B" stroke-width="0.757895"/>
<path opacity="0.6" d="M96.7168 10.321C96.7168 7.05575 99.5021 4.87891 102.635 4.87891C105.769 4.87891 108.554 7.05575 108.554 10.321V59.7947C108.554 67.7105 102.188 75.1315 96.7168 75.1315V10.321Z" stroke="#3C5D66" stroke-width="0.663158"/>
<path opacity="0.47" d="M98.0597 10.3212C98.0597 7.79802 100.298 6.36328 102.635 6.36328C104.973 6.36328 107.211 7.79802 107.211 10.3212V59.7949C107.211 66.7212 101.69 73.6475 98.0597 73.6475V10.3212Z" stroke="#3C5D66" stroke-width="0.663158"/>
<path opacity="0.35" d="M99.4026 10.3211C99.4026 8.54004 101.094 7.84741 102.635 7.84741C104.177 7.84741 105.868 8.54004 105.868 10.3211V59.7948C105.868 65.7316 100.696 72.1632 99.4026 72.1632V10.3211Z" stroke="#C8A84A" stroke-width="0.568421"/>
<path opacity="0.22" d="M100.745 10.3211C100.745 9.2822 101.889 9.33167 102.635 9.33167C103.382 9.33167 104.525 9.2822 104.525 10.3211V59.7948C104.525 64.7422 100.696 70.679 100.745 70.679V10.3211Z" stroke="#BA9130" stroke-width="0.568421"/>
<path opacity="0.11" d="M101.641 10.3211C101.641 9.92534 102.635 10.8159 102.635 10.8159C102.635 10.8159 103.63 9.92534 103.63 10.3211V59.7948C103.63 63.7527 101.889 69.1948 101.641 69.1948V10.3211Z" stroke="#BA9130" stroke-width="0.473684"/>
<path d="M113.612 54.0222C113.632 68.1583 125.17 79.6016 139.381 79.5813L139.347 55.7053C139.326 41.569 127.789 30.146 113.578 30.146L113.612 54.0222Z" stroke="#19272B" stroke-width="0.852632"/>
<path opacity="0.88" d="M115.07 54.0063C115.07 67.1663 125.763 78.1 139.242 78.1L139.192 55.6884C139.192 42.5284 128.399 31.5947 115.07 31.6442V54.0063Z" stroke="#19272B" stroke-width="0.757895"/>
<path opacity="0.74" d="M116.512 54.0064C116.512 66.1769 126.36 76.6159 139.092 76.6159L139.043 55.6885C139.043 43.518 128.996 33.0296 116.512 33.079V54.0064Z" stroke="#19272B" stroke-width="0.757895"/>
<path opacity="0.6" d="M117.954 54.0065C117.954 65.1875 126.957 75.1317 138.943 75.1317L138.894 55.6886C138.894 44.5075 129.593 34.4644 117.954 34.5139V54.0065Z" stroke="#3C5D66" stroke-width="0.663158"/>
<path opacity="0.47" d="M119.397 54.0063C119.397 64.1979 127.554 73.6474 138.794 73.6474L138.744 55.6884C138.744 45.4969 130.19 35.899 119.397 35.9484V54.0063Z" stroke="#3C5D66" stroke-width="0.663158"/>
<path opacity="0.35" d="M120.839 54.0064C120.839 63.2085 128.15 72.1633 138.645 72.1633L138.595 55.6885C138.595 46.4864 130.786 37.3338 120.839 37.3833V54.0064Z" stroke="#C8A84A" stroke-width="0.568421"/>
<path opacity="0.22" d="M122.281 54.0065C122.281 62.2191 128.747 70.6791 138.496 70.6791L138.446 55.6886C138.446 47.476 131.383 38.7686 122.281 38.8181V54.0065Z" stroke="#BA9130" stroke-width="0.568421"/>
<path opacity="0.11" d="M123.724 54.0063C123.724 61.2295 129.344 69.1948 138.347 69.1948L138.297 55.6885C138.297 48.4653 131.98 40.2032 123.724 40.2527V54.0063Z" stroke="#BA9130" stroke-width="0.473684"/>
<path d="M113.613 13.5999C113.593 6.36301 119.475 0.480637 126.751 0.46123C134.026 0.441822 139.94 6.29271 139.959 13.5296L139.963 14.9855C139.985 23.0265 133.449 29.5625 125.366 29.584L113.656 29.6153L113.613 13.5999Z" stroke="#19272B" stroke-width="0.852632"/>
<path opacity="0.88" d="M115.07 13.5864C115.07 7.15485 120.292 1.96012 126.708 1.91064C133.124 1.91064 138.396 7.10538 138.446 13.537V14.9717C138.446 22.1949 132.627 28.0327 125.365 28.0822H115.119L115.07 13.5864Z" stroke="#19272B" stroke-width="0.757895"/>
<path opacity="0.74" d="M116.512 13.5864C116.512 7.99592 121.088 3.49381 126.708 3.44434C132.328 3.44434 136.904 7.94644 136.954 13.537V14.9717C136.954 21.3538 131.831 26.5486 125.415 26.598H116.562L116.512 13.5864Z" stroke="#19272B" stroke-width="0.757895"/>
<path opacity="0.6" d="M117.954 13.5864C117.954 8.83698 121.884 5.0275 126.708 4.97803C131.532 4.97803 135.462 8.7875 135.511 13.537L135.462 14.9717C135.462 20.5128 131.035 25.0643 125.465 25.1138H118.004L117.954 13.5864Z" stroke="#3C5D66" stroke-width="0.663158"/>
<path opacity="0.47" d="M119.397 13.5865C119.397 9.67803 122.679 6.56119 126.708 6.51172C130.737 6.51172 134.019 9.62856 134.069 13.537L134.019 14.9717C134.019 19.6717 130.239 23.5801 125.514 23.6296H119.446L119.397 13.5865Z" stroke="#3C5D66" stroke-width="0.663158"/>
<path opacity="0.35" d="M120.839 13.5865C120.839 10.5191 123.475 8.09488 126.708 8.04541C129.941 8.04541 132.627 10.4696 132.627 13.537L132.577 14.9717C132.577 18.8307 129.444 22.0959 125.564 22.1454H120.889L120.839 13.5865Z" stroke="#C8A84A" stroke-width="0.568421"/>
<path opacity="0.22" d="M122.281 13.5865C122.281 11.3602 124.271 9.62858 126.708 9.5791C129.145 9.5791 131.184 11.3107 131.184 13.537L131.135 14.9717C131.135 17.9896 128.648 20.6117 125.614 20.6612H122.331L122.281 13.5865Z" stroke="#BA9130" stroke-width="0.568421"/>
<path opacity="0.11" d="M123.724 13.5865C123.724 12.2012 125.067 11.1623 126.708 11.1128C128.349 11.1128 129.742 12.1517 129.742 13.537L129.692 14.9717C129.692 17.1486 127.852 19.1275 125.664 19.177H123.774L123.724 13.5865Z" stroke="#BA9130" stroke-width="0.473684"/>
<path d="M147.896 18.2368C147.896 8.40034 155.913 0.42627 165.801 0.42627C175.69 0.42627 183.707 8.40029 183.707 18.2368V75.6263C183.707 77.812 181.925 79.5842 179.728 79.5842H147.896V18.2368Z" stroke="#19272B" stroke-width="0.852632"/>
<path opacity="0.88" d="M149.388 18.237C149.388 9.23275 156.699 1.91064 165.801 1.91064C174.903 1.91064 182.214 9.23275 182.214 18.237V75.6264C182.214 77.0612 180.673 78.1001 179.728 78.1001H149.388V18.237Z" stroke="#19272B" stroke-width="0.757895"/>
<path opacity="0.74" d="M150.88 18.2369C150.88 10.0737 157.495 3.39478 165.801 3.39478C174.107 3.39478 180.722 10.0737 180.722 18.2369V74.6369C180.722 76.22 179.479 76.6158 178.733 76.6158H150.88V18.2369Z" stroke="#19272B" stroke-width="0.757895"/>
<path opacity="0.6" d="M152.372 18.2368C152.372 10.9147 158.291 4.87891 165.801 4.87891C173.312 4.87891 179.23 10.9147 179.23 18.2368V73.6473C179.23 75.3789 178.285 75.6263 177.738 75.6263H152.372V18.2368Z" stroke="#3C5D66" stroke-width="0.663158"/>
<path opacity="0.47" d="M153.864 18.237C153.864 11.7559 159.087 6.36328 165.801 6.36328C172.516 6.36328 177.738 11.7559 177.738 18.237V72.658C177.738 74.538 177.091 74.637 176.743 74.637H153.864V18.237Z" stroke="#3C5D66" stroke-width="0.663158"/>
<path opacity="0.35" d="M155.356 18.2369C155.356 12.5969 159.882 7.84741 165.801 7.84741C171.72 7.84741 176.246 12.5969 176.246 18.2369V71.6685C176.246 73.6969 175.898 73.6474 175.749 73.6474H155.356V18.2369Z" stroke="#C8A84A" stroke-width="0.568421"/>
<path opacity="0.22" d="M156.849 18.2368C156.849 13.4379 160.678 9.33154 165.801 9.33154C170.924 9.33154 174.754 13.4379 174.754 18.2368V70.6789C174.754 72.8558 174.704 72.6579 174.754 72.6579H156.849V18.2368Z" stroke="#BA9130" stroke-width="0.568421"/>
<path opacity="0.11" d="M158.341 18.237C158.341 14.2791 161.474 10.8159 165.801 10.8159C170.128 10.8159 173.262 14.2791 173.262 18.237V69.6896C173.262 72.0149 173.51 71.6686 173.759 71.6686H158.341V18.237Z" stroke="#BA9130" stroke-width="0.473684"/>
<path opacity="0.05" d="M159.833 18.2369C159.833 15.12 162.27 12.3 165.801 12.3C169.333 12.3 171.77 15.12 171.77 18.2369V68.7001C171.77 71.1737 172.516 70.679 172.764 70.679H159.833V18.2369Z" stroke="#BA9130" stroke-width="0.473684"/>
</svg>
