<svg width="301" height="95" viewBox="0 0 301 95" fill="none" xmlns="http://www.w3.org/2000/svg">
<path d="M50.6764 85H9.39478V63.75C9.39478 52.2901 18.636 43 30.0356 43C41.4352 43 50.6764 52.2901 50.6764 63.75V85Z" stroke="#BA9130" stroke-width="0.852632"/>
<path opacity="0.88" d="M49.1842 85H10.8868V63.75C10.8868 53.1 19.4416 44.5 30.0355 44.5C40.6295 44.5 49.1842 53.1 49.1842 63.75V85Z" stroke="#BA9130" stroke-width="0.757895"/>
<path opacity="0.75" d="M47.6921 85H12.3789V63.75C12.3789 53.9 20.2373 46 30.0355 46C39.8336 46 47.6921 53.9 47.6921 63.75V85Z" stroke="#BA9130" stroke-opacity="0.8" stroke-width="0.757895"/>
<path opacity="0.62" d="M46.2 85H13.8711V63.75C13.8711 54.7 21.0332 47.5 30.0356 47.5C39.0379 47.5 46.2 54.7 46.2 63.75V85Z" stroke="#F2EFE8" stroke-width="0.663158"/>
<path opacity="0.5" d="M44.7079 85H15.3632V63.75C15.3632 55.5 21.8289 49 30.0355 49C38.2421 49 44.7079 55.5 44.7079 63.75V85Z" stroke="#F2EFE8" stroke-width="0.663158"/>
<path opacity="0.37" d="M43.2158 85H16.8552V63.75C16.8552 56.3 22.6247 50.5 30.0355 50.5C37.4463 50.5 43.2158 56.3 43.2158 63.75V85Z" stroke="#F2EFE8" stroke-width="0.568421"/>
<path opacity="0.25" d="M41.7237 85H18.3474V63.75C18.3474 57.1 23.4206 52 30.0356 52C36.6506 52 41.7237 57.1 41.7237 63.75V85Z" stroke="#F2EFE8" stroke-width="0.568421"/>
<path opacity="0.13" d="M40.2316 85H19.8395V63.75C19.8395 57.9 24.2163 53.5 30.0355 53.5C35.8547 53.5 40.2316 57.9 40.2316 63.75V85Z" stroke="#F2EFE8" stroke-width="0.473684"/>
<path opacity="0.06" d="M38.7394 85H21.3315V63.75C21.3315 58.7 25.0121 55 30.0355 55C35.0589 55 38.7394 58.7 38.7394 63.75V85Z" stroke="#F2EFE8" stroke-width="0.473684"/>
<path d="M9.85136 21.0184C9.73479 32.0734 18.555 41.1302 29.5517 41.2474L31.5428 41.2686C41.44 41.3741 49.5482 33.3939 49.6531 23.4445C49.758 13.495 41.8199 5.34389 31.9228 5.23842L10.0202 5.005L9.85136 21.0184Z" stroke="#BA9130" stroke-width="0.852632"/>
<path opacity="0.88" d="M11.3842 21C11.2847 31.15 19.3421 39.45 29.5879 39.55H31.5774C40.5797 39.65 47.9408 32.4001 48.0403 23.35C48.1397 14.3 40.9776 6.90005 31.8758 6.80005L11.5334 6.55005L11.3842 21Z" stroke="#BA9130" stroke-width="0.757895"/>
<path opacity="0.75" d="M12.8764 20.95C12.7769 30.2 20.1379 37.8 29.6377 37.9H31.5774C39.7343 38 46.3493 31.4 46.4487 23.25C46.5482 15.1 40.1321 8.44998 31.8261 8.34998L13.0753 8.09998L12.8764 20.95Z" stroke="#BA9130" stroke-opacity="0.8" stroke-width="0.757895"/>
<path opacity="0.62" d="M14.3684 20.9C14.2689 29.3 20.9337 36.15 29.6376 36.25H31.5774C38.8887 36.35 44.7576 30.4 44.8571 23.15C44.9566 15.9 39.2866 10 31.7763 9.90002L14.6171 9.65002L14.3684 20.9Z" stroke="#F2EFE8" stroke-width="0.663158"/>
<path opacity="0.5" d="M15.8605 20.85C15.761 28.4 21.7294 34.5 29.6873 34.6H31.5773C38.0431 34.7 43.166 29.4 43.2655 23.05C43.365 16.7 38.441 11.55 31.7265 11.45L16.1589 11.2L15.8605 20.85Z" stroke="#F2EFE8" stroke-width="0.663158"/>
<path opacity="0.37" d="M17.3526 20.8C17.2531 27.5 22.5252 32.85 29.7371 32.95H31.5773C37.1976 33.05 41.5744 28.4 41.6739 22.95C41.7734 17.5 37.5955 13.1 31.6768 13L17.7007 12.75L17.3526 20.8Z" stroke="#F2EFE8" stroke-width="0.568421"/>
<path opacity="0.25" d="M18.8447 20.75C18.7453 26.6 23.321 31.2 29.7868 31.3H31.5774C36.3521 31.4 39.9829 27.4 40.0824 22.85C40.1818 18.3 36.75 14.65 31.6271 14.55L19.2426 14.3L18.8447 20.75Z" stroke="#F2EFE8" stroke-width="0.568421"/>
<path opacity="0.13" d="M20.3368 20.7C20.2374 25.7 24.1168 29.55 29.8366 29.65H31.5774C35.5066 29.75 38.3913 26.4 38.4908 22.75C38.5903 19.1 35.9045 16.2 31.5774 16.1L20.7845 15.85L20.3368 20.7Z" stroke="#F2EFE8" stroke-width="0.473684"/>
<path d="M57.8882 23C57.8882 13.0589 65.9048 5 75.7934 5C85.6821 5 93.6987 13.0589 93.6987 23V85H61.8671C59.6698 85 57.8882 83.209 57.8882 81V23Z" stroke="#BA9130" stroke-width="0.852632"/>
<path opacity="0.88" d="M59.3802 23C59.3802 13.9 66.6916 6.5 75.7934 6.5C84.8952 6.5 92.2066 13.9 92.2066 23V83.5H63.1105C61.2205 83.5 59.3802 82 59.3802 81V23Z" stroke="#BA9130" stroke-width="0.757895"/>
<path opacity="0.75" d="M60.8723 23C60.8723 14.75 67.4873 8 75.7934 8C84.0994 8 90.7144 14.75 90.7144 23V82H64.3539C62.7623 82 60.8723 80.8 60.8723 79.5V23Z" stroke="#BA9130" stroke-opacity="0.8" stroke-width="0.757895"/>
<path opacity="0.62" d="M62.3645 23C62.3645 15.6 68.2832 9.5 75.7934 9.5C83.3037 9.5 89.2224 15.6 89.2224 23V80.5H65.5974C64.3042 80.5 62.3645 79.6 62.3645 78V23Z" stroke="#F2EFE8" stroke-width="0.663158"/>
<path opacity="0.5" d="M63.8566 23C63.8566 16.45 69.0789 11 75.7934 11C82.5079 11 87.7303 16.45 87.7303 23V79H66.8408C65.846 79 63.8566 78.25 63.8566 76.5V23Z" stroke="#F2EFE8" stroke-width="0.663158"/>
<path opacity="0.37" d="M65.3486 23C65.3486 17.3 69.8747 12.5 75.7934 12.5C81.7121 12.5 86.2381 17.3 86.2381 23V77H68.0842C67.3878 77 65.3486 76.6 65.3486 75V23Z" stroke="#F2EFE8" stroke-width="0.568421"/>
<path opacity="0.25" d="M66.8408 23C66.8408 18.15 70.6706 14 75.7935 14C80.9163 14 84.7461 18.15 84.7461 23V75.5H69.3277C68.9298 75.5 66.8408 75.4 66.8408 73.5V23Z" stroke="#F2EFE8" stroke-width="0.568421"/>
<path opacity="0.13" d="M68.3329 23C68.3329 19 71.4663 15.5 75.7934 15.5C80.1205 15.5 83.2539 19 83.2539 23V74H70.571C70.4716 74 68.3329 74.2 68.3329 72V23Z" stroke="#F2EFE8" stroke-width="0.473684"/>
<path opacity="0.06" d="M69.825 23C69.825 19.85 72.2621 17 75.7934 17C79.3247 17 81.7618 19.85 81.7618 23V72.5H71.8144C72.0631 72.5 69.825 72.9 69.825 70.5V23Z" stroke="#F2EFE8" stroke-width="0.473684"/>
<path d="M101.657 15C101.657 9.47716 106.11 5 111.604 5C117.098 5 121.551 9.47716 121.551 15V65C121.551 76.0455 112.644 85 101.657 85V15Z" stroke="#BA9130" stroke-width="0.852632"/>
<path opacity="0.88" d="M103 15C103 10.2 106.879 6.5 111.604 6.5C116.329 6.5 120.208 10.2 120.208 15V65C120.208 75 112.151 83.5 103 83.5V15Z" stroke="#BA9130" stroke-width="0.757895"/>
<path opacity="0.75" d="M104.342 15C104.342 10.95 107.675 8 111.604 8C115.533 8 118.866 10.95 118.866 15V65C118.866 74 111.654 82 104.342 82V15Z" stroke="#BA9130" stroke-opacity="0.8" stroke-width="0.757895"/>
<path opacity="0.62" d="M105.685 15C105.685 11.7 108.471 9.5 111.604 9.5C114.737 9.5 117.523 11.7 117.523 15V65C117.523 73 111.156 80.5 105.685 80.5V15Z" stroke="#F2EFE8" stroke-width="0.663158"/>
<path opacity="0.5" d="M107.028 15C107.028 12.45 109.266 11 111.604 11C113.942 11 116.18 12.45 116.18 15V65C116.18 72 110.659 79 107.028 79V15Z" stroke="#F2EFE8" stroke-width="0.663158"/>
<path opacity="0.37" d="M108.371 15C108.371 13.2 110.062 12.5 111.604 12.5C113.146 12.5 114.837 13.2 114.837 15V65C114.837 71 109.664 77.5 108.371 77.5V15Z" stroke="#F2EFE8" stroke-width="0.568421"/>
<path opacity="0.25" d="M109.714 15C109.714 13.95 110.858 14 111.604 14C112.35 14 113.494 13.95 113.494 15V65C113.494 70 109.664 76 109.714 76V15Z" stroke="#F2EFE8" stroke-width="0.568421"/>
<path opacity="0.13" d="M110.609 14.9999C110.609 14.5999 111.604 15.4999 111.604 15.4999C111.604 15.4999 112.599 14.5999 112.599 14.9999V64.9999C112.599 68.9999 110.858 74.4999 110.609 74.4999V14.9999Z" stroke="#F2EFE8" stroke-width="0.473684"/>
<path d="M122.58 59.166C122.601 73.4525 134.138 85.0175 148.349 84.997L148.315 60.867C148.295 46.5803 136.757 35.0358 122.546 35.0358L122.58 59.166Z" stroke="#BA9130" stroke-width="0.852632"/>
<path opacity="0.88" d="M124.038 59.15C124.038 72.45 134.732 83.5 148.21 83.5L148.161 60.85C148.161 47.55 137.368 36.5 124.038 36.55V59.15Z" stroke="#BA9130" stroke-width="0.757895"/>
<path opacity="0.75" d="M125.48 59.1501C125.48 71.4501 135.328 82.0001 148.061 82.0001L148.011 60.8501C148.011 48.5501 137.964 37.9501 125.48 38.0001V59.1501Z" stroke="#BA9130" stroke-opacity="0.8" stroke-width="0.757895"/>
<path opacity="0.62" d="M126.923 59.15C126.923 70.45 135.925 80.5 147.912 80.5L147.862 60.85C147.862 49.55 138.561 39.4 126.923 39.45V59.15Z" stroke="#F2EFE8" stroke-width="0.663158"/>
<path opacity="0.5" d="M128.365 59.15C128.365 69.45 136.522 79 147.763 79L147.713 60.85C147.713 50.55 139.158 40.85 128.365 40.9V59.15Z" stroke="#F2EFE8" stroke-width="0.663158"/>
<path opacity="0.37" d="M129.808 59.1501C129.808 68.4501 137.119 77.5001 147.613 77.5001L147.564 60.8501C147.564 51.5501 139.755 42.3001 129.808 42.3501V59.1501Z" stroke="#F2EFE8" stroke-width="0.568421"/>
<path opacity="0.25" d="M131.25 59.15C131.25 67.45 137.716 76 147.464 76L147.414 60.85C147.414 52.55 140.352 43.75 131.25 43.8V59.15Z" stroke="#F2EFE8" stroke-width="0.568421"/>
<path opacity="0.13" d="M132.692 59.15C132.692 66.45 138.313 74.5 147.315 74.5L147.265 60.85C147.265 53.55 140.949 45.2 132.692 45.25V59.15Z" stroke="#F2EFE8" stroke-width="0.473684"/>
<path d="M122.581 18.3137C122.562 10.9999 128.444 5.05494 135.719 5.03533C142.995 5.01571 148.908 10.9288 148.928 18.2427L148.932 19.7141C148.953 27.8406 142.418 34.4462 134.334 34.4679L122.625 34.4995L122.581 18.3137Z" stroke="#BA9130" stroke-width="0.852632"/>
<path opacity="0.88" d="M124.038 18.3C124.038 11.8 129.261 6.55 135.677 6.5C142.093 6.5 147.365 11.75 147.415 18.25V19.7C147.415 27 141.595 32.9 134.334 32.95H124.088L124.038 18.3Z" stroke="#BA9130" stroke-width="0.757895"/>
<path opacity="0.75" d="M125.48 18.3C125.48 12.65 130.056 8.10005 135.677 8.05005C141.297 8.05005 145.873 12.6 145.922 18.25V19.7C145.922 26.15 140.799 31.4001 134.383 31.4501H125.53L125.48 18.3Z" stroke="#BA9130" stroke-width="0.757895"/>
<path opacity="0.62" d="M126.923 18.3C126.923 13.5 130.852 9.64998 135.677 9.59998C140.501 9.59998 144.43 13.45 144.48 18.25L144.43 19.7C144.43 25.3 140.004 29.9 134.433 29.95H126.973L126.923 18.3Z" stroke="#F2EFE8" stroke-width="0.663158"/>
<path opacity="0.5" d="M128.365 18.3C128.365 14.35 131.648 11.2 135.677 11.15C139.705 11.15 142.988 14.3 143.038 18.25L142.988 19.7C142.988 24.45 139.208 28.4 134.483 28.45H128.415L128.365 18.3Z" stroke="#F2EFE8" stroke-width="0.663158"/>
<path opacity="0.37" d="M129.808 18.3C129.808 15.2 132.444 12.75 135.677 12.7C138.909 12.7 141.595 15.15 141.595 18.25L141.546 19.7C141.546 23.6 138.412 26.9 134.533 26.95H129.857L129.808 18.3Z" stroke="#F2EFE8" stroke-width="0.568421"/>
<path opacity="0.25" d="M131.25 18.3C131.25 16.05 133.239 14.3 135.677 14.25C138.114 14.25 140.153 16 140.153 18.25L140.103 19.7C140.103 22.75 137.616 25.4 134.582 25.45H131.3L131.25 18.3Z" stroke="#F2EFE8" stroke-width="0.568421"/>
<path opacity="0.13" d="M132.692 18.3C132.692 16.9 134.035 15.85 135.677 15.8C137.318 15.8 138.711 16.85 138.711 18.25L138.661 19.7C138.661 21.9 136.821 23.9 134.632 23.95H132.742L132.692 18.3Z" stroke="#F2EFE8" stroke-width="0.473684"/>
<path d="M156.865 23C156.865 13.0589 164.881 5 174.77 5C184.658 5 192.675 13.0589 192.675 23V81C192.675 83.209 190.893 85 188.696 85H156.865V23Z" stroke="#BA9130" stroke-width="0.852632"/>
<path opacity="0.88" d="M158.357 23C158.357 13.9 165.668 6.5 174.77 6.5C183.872 6.5 191.183 13.9 191.183 23V81C191.183 82.45 189.641 83.5 188.696 83.5H158.357V23Z" stroke="#BA9130" stroke-width="0.757895"/>
<path opacity="0.75" d="M159.849 23C159.849 14.75 166.464 8 174.77 8C183.076 8 189.691 14.75 189.691 23V80C189.691 81.6 188.447 82 187.701 82H159.849V23Z" stroke="#BA9130" stroke-opacity="0.8" stroke-width="0.757895"/>
<path opacity="0.62" d="M161.341 23C161.341 15.6 167.26 9.5 174.77 9.5C182.28 9.5 188.199 15.6 188.199 23V79C188.199 80.75 187.254 81 186.707 81H161.341V23Z" stroke="#F2EFE8" stroke-width="0.663158"/>
<path opacity="0.5" d="M162.833 23C162.833 16.45 168.055 11 174.77 11C181.484 11 186.707 16.45 186.707 23V78C186.707 79.9 186.06 80 185.712 80H162.833V23Z" stroke="#F2EFE8" stroke-width="0.663158"/>
<path opacity="0.37" d="M164.325 23C164.325 17.3 168.851 12.5 174.77 12.5C180.688 12.5 185.214 17.3 185.214 23V77C185.214 79.05 184.866 79 184.717 79H164.325V23Z" stroke="#F2EFE8" stroke-width="0.568421"/>
<path opacity="0.25" d="M165.817 23C165.817 18.15 169.647 14 174.77 14C179.893 14 183.722 18.15 183.722 23V76C183.722 78.2 183.673 78 183.722 78H165.817V23Z" stroke="#F2EFE8" stroke-width="0.568421"/>
<path opacity="0.13" d="M167.309 23C167.309 19 170.443 15.5 174.77 15.5C179.097 15.5 182.23 19 182.23 23V75C182.23 77.35 182.479 77 182.728 77H167.309V23Z" stroke="#F2EFE8" stroke-width="0.473684"/>
<path opacity="0.06" d="M168.801 23C168.801 19.85 171.238 17 174.77 17C178.301 17 180.738 19.85 180.738 23V74C180.738 76.5 181.484 76 181.733 76H168.801V23Z" stroke="#F2EFE8" stroke-width="0.473684"/>
</svg>
