<svg width="24" height="18" viewBox="0 0 24 18" fill="none" xmlns="http://www.w3.org/2000/svg">
<g clip-path="url(#clip0_200_234)">
<path d="M2 11C2 8.08262 3.05357 5.28473 4.92893 3.22183C6.8043 1.15893 9.34784 0 12 0C14.6522 0 17.1957 1.15893 19.0711 3.22183C20.9464 5.28473 22 8.08262 22 11" stroke="#F2EFE8" stroke-width="1.3" stroke-linecap="round"/>
<path opacity="0.55" d="M4 11C4 8.61305 4.84285 6.32387 6.34315 4.63604C7.84344 2.94821 9.87827 2 12 2C14.1217 2 16.1566 2.94821 17.6569 4.63604C19.1571 6.32387 20 8.61305 20 11" stroke="#4DAFC2" stroke-width="0.7"/>
<path d="M4 12C4 10.8954 3.10457 10 2 10C0.89543 10 0 10.8954 0 12V15C0 16.1046 0.89543 17 2 17C3.10457 17 4 16.1046 4 15V12Z" stroke="#F2EFE8" stroke-width="1.2"/>
<path d="M24 12C24 10.8954 23.1046 10 22 10C20.8954 10 20 10.8954 20 12V15C20 16.1046 20.8954 17 22 17C23.1046 17 24 16.1046 24 15V12Z" stroke="#F2EFE8" stroke-width="1.2"/>
</g>
<defs>
<clipPath id="clip0_200_234">
<rect width="24" height="18" fill="white"/>
</clipPath>
</defs>
</svg>
